<svg xmlns="http://www.w3.org/2000/svg" viewBox="0 0 512 512">
  <rect width="512" height="512" rx="112" fill="#fbfaf7"/>
  <path d="M84 307c82-151 160-174 250-98 42 36 64 74 94 102" fill="none" stroke="#b9a99a" stroke-width="5" stroke-linecap="round"/>
  <text x="256" y="315" text-anchor="middle" font-family="cursive" font-size="162" font-weight="400" fill="#a89686">Roby’s</text>
  <path d="M112 339c96 5 190 5 288 0" stroke="#c9bbb0" stroke-width="3"/>
  <text x="256" y="388" text-anchor="middle" font-family="Arial,Helvetica,sans-serif" font-size="22" font-weight="400" letter-spacing="11" fill="#b8a99e">COFFEE HOUSE</text>
  <path d="M244 116c0-24 18-31 8-52M269 116c0-21 20-27 9-49" fill="none" stroke="#c8b7a8" stroke-width="3" stroke-linecap="round"/>
  <path d="M201 128h112l-16 62c-5 20-24 34-45 34h-2c-21 0-40-14-45-34z" fill="none" stroke="#b9a99a" stroke-width="4"/>
  <path d="M313 145c31 0 31 43 0 43" fill="none" stroke="#b9a99a" stroke-width="4"/>
</svg>