<svg xmlns="http://www.w3.org/2000/svg" viewBox="0 0 512 512" role="img" aria-labelledby="title desc">
  <title id="title">Roby's</title>
  <desc id="desc">Roby's owner-approved Organic O on a pure white app tile.</desc>
  <rect width="512" height="512" rx="112" fill="#FFFFFF"/>
  <g id="robys-mark" transform="translate(104 82) scale(1.65)">
    <path fill="#E21B23" fill-rule="evenodd" d="M 93.500 0.000 Q 83.000 0.000 77.000 1.000 Q 71.000 2.000 59.000 7.000 Q 47.000 12.000 42.000 15.500 Q 37.000 19.000 28.000 29.000 Q 19.000 39.000 14.500 47.000 Q 10.000 55.000 6.500 65.500 Q 3.000 76.000 1.500 88.500 Q 0.000 101.000 0.500 111.000 Q 1.000 121.000 3.000 130.000 Q 5.000 139.000 10.000 151.000 Q 15.000 163.000 19.000 169.000 Q 23.000 175.000 29.000 181.500 Q 35.000 188.000 42.500 193.500 Q 50.000 199.000 60.500 203.500 Q 71.000 208.000 76.000 209.000 Q 81.000 210.000 92.500 210.000 Q 104.000 210.000 112.000 208.000 Q 120.000 206.000 129.500 201.000 Q 139.000 196.000 148.000 187.500 Q 157.000 179.000 161.500 172.500 Q 166.000 166.000 169.500 159.000 Q 173.000 152.000 177.000 139.000 Q 181.000 126.000 182.000 119.500 Q 183.000 113.000 183.000 99.000 Q 183.000 85.000 181.000 75.500 Q 179.000 66.000 177.000 60.500 Q 175.000 55.000 169.000 44.500 Q 163.000 34.000 157.000 27.500 Q 151.000 21.000 145.000 16.500 Q 139.000 12.000 129.000 7.500 Q 119.000 3.000 111.500 1.500 Q 104.000 0.000 93.500 0.000 Z M 76.000 30.000 Q 84.000 28.000 90.500 28.000 Q 97.000 28.000 100.000 29.500 Q 103.000 31.000 105.000 33.000 Q 107.000 35.000 109.500 39.500 Q 112.000 44.000 117.000 57.000 Q 122.000 70.000 128.000 75.000 Q 134.000 80.000 145.500 84.500 Q 157.000 89.000 159.500 93.000 Q 162.000 97.000 162.000 104.000 Q 162.000 111.000 160.500 119.000 Q 159.000 127.000 156.000 135.000 Q 153.000 143.000 149.000 149.500 Q 145.000 156.000 138.500 163.000 Q 132.000 170.000 127.500 173.000 Q 123.000 176.000 117.500 178.500 Q 112.000 181.000 104.000 182.500 Q 96.000 184.000 89.500 183.500 Q 83.000 183.000 77.500 181.500 Q 72.000 180.000 65.000 176.500 Q 58.000 173.000 54.000 170.000 Q 50.000 167.000 45.000 162.000 Q 40.000 157.000 36.500 152.000 Q 33.000 147.000 30.000 141.000 Q 27.000 135.000 24.500 125.500 Q 22.000 116.000 22.000 105.500 Q 22.000 95.000 23.000 89.500 Q 24.000 84.000 25.500 79.500 Q 27.000 75.000 32.000 66.000 Q 37.000 57.000 43.500 50.000 Q 50.000 43.000 59.000 37.500 Q 68.000 32.000 76.000 30.000 Z"/>
  </g>
</svg>
