<svg xmlns="http://www.w3.org/2000/svg" viewBox="0 0 512 512" role="img" aria-labelledby="title desc">
  <title id="title">Roby's</title>
  <desc id="desc">Roby's organic red O on the approved warm paper field.</desc>
  <rect width="512" height="512" rx="112" fill="#F5F5F2"/>
  <g id="robys-mark" transform="translate(76 76) scale(3.6)">
    <path fill="#E21B23" fill-rule="evenodd" d="M50 4C77.7 4 96 22.9 96 50.3 96 77.6 77.2 96 49.8 96 22.7 96 4 77.2 4 50.1 4 22.8 22.7 4 50 4Zm-.8 19.8c-15.5-.7-27 9-28.2 24.2-1.3 16.8 9.8 29.3 25.7 30.8 14.8 1.4 27.6-8.8 30.9-21.2 2.2-8.1-4.8-9.4-9-14.4-6.8-8.1-4.6-18.7-19.4-19.4Z"/>
  </g>
</svg>
