<svg xmlns="http://www.w3.org/2000/svg" width="1200" height="1200" viewBox="0 0 1200 1200"><defs><linearGradient id="bg" x1="0" y1="0" x2="1" y2="1"><stop offset="0%" stop-color="#3b251c"/><stop offset="55%" stop-color="#5a3422"/><stop offset="100%" stop-color="#241611"/></linearGradient><radialGradient id="foam" cx="50%" cy="40%" r="60%"><stop offset="0%" stop-color="#fff9ef"/><stop offset="100%" stop-color="#d49649"/></radialGradient><linearGradient id="cup" x1="0" y1="0" x2="1" y2="1"><stop offset="0%" stop-color="#ffffff"/><stop offset="100%" stop-color="#ddd8d1"/></linearGradient><linearGradient id="saucer" x1="0" y1="0" x2="0" y2="1"><stop offset="0%" stop-color="#f7f4ef"/><stop offset="100%" stop-color="#d8d3cc"/></linearGradient><filter id="shadow" x="-20%" y="-20%" width="140%" height="140%"><feDropShadow dx="0" dy="18" stdDeviation="26" flood-opacity="0.24"/></filter></defs><rect width="1200" height="1200" fill="url(#bg)"/><circle cx="190" cy="260" r="24" fill="#26160f"/><circle cx="262" cy="308" r="20" fill="#2a1a11"/><circle cx="115" cy="350" r="16" fill="#2f1d13"/><circle cx="1030" cy="235" r="90" fill="#8f6339" opacity="0.12"/><ellipse cx="600" cy="952" rx="430" ry="92" fill="#1f120d" opacity="0.22"/><g filter="url(#shadow)"><ellipse cx="600" cy="860" rx="458" ry="134" fill="url(#saucer)"/><ellipse cx="600" cy="838" rx="392" ry="98" fill="#ffffff" opacity="0.86"/><path d="M286 430 C300 318 408 246 600 246 C792 246 900 318 914 430 L960 728 C974 834 880 912 600 912 C320 912 226 834 240 728 Z" fill="url(#cup)"/><ellipse cx="600" cy="430" rx="318" ry="112" fill="#fffaf3"/><ellipse cx="600" cy="438" rx="294" ry="92" fill="url(#foam)"/><path d="M924 454 C1010 468 1086 542 1086 650 C1086 756 1010 834 916 828 C960 786 986 730 986 650 C986 570 960 514 924 454 Z" fill="url(#cup)"/><ellipse cx="928" cy="644" rx="96" ry="142" fill="none" stroke="#e6dfd8" stroke-width="22"/><g opacity="0.92"><path d="M598 368 C550 412 524 452 520 494 C560 470 592 446 618 422 C640 402 654 386 672 366 C648 360 628 360 598 368 Z" fill="#fffaf3"/><path d="M564 442 C502 500 488 540 490 582 C544 552 592 516 628 478 C654 452 670 430 694 404 C654 400 612 410 564 442 Z" fill="#fff7ec"/><path d="M654 442 C706 486 734 526 742 574 C692 546 652 514 622 482 C598 458 584 438 566 416 C598 408 626 414 654 442 Z" fill="#fffaf3"/></g><text x="600" y="708" text-anchor="middle" font-family="Arial, Helvetica, sans-serif" font-size="98" font-weight="700" fill="#161413">ROBY'S</text><text x="600" y="786" text-anchor="middle" font-family="Arial, Helvetica, sans-serif" font-size="46" letter-spacing="4" fill="#2b2623">COFFEE HOUSE</text><text x="550" y="708" text-anchor="end" font-family="Arial, Helvetica, sans-serif" font-size="98" font-weight="700" fill="#c0182f">O</text></g></svg>