<svg xmlns="http://www.w3.org/2000/svg" width="1200" height="1200" viewBox="0 0 1200 1200"><defs><linearGradient id="bg" x1="0" y1="0" x2="1" y2="1"><stop offset="0%" stop-color="#f5d8af"/><stop offset="55%" stop-color="#efc184"/><stop offset="100%" stop-color="#c48746"/></linearGradient><linearGradient id="table" x1="0" y1="0" x2="1" y2="0"><stop offset="0%" stop-color="#70411d"/><stop offset="100%" stop-color="#4d2c15"/></linearGradient><linearGradient id="pastry" x1="0" y1="0" x2="1" y2="1"><stop offset="0%" stop-color="#db8f3b"/><stop offset="55%" stop-color="#bd651b"/><stop offset="100%" stop-color="#8e430d"/></linearGradient><linearGradient id="pastryTop" x1="0" y1="0" x2="0" y2="1"><stop offset="0%" stop-color="#e7a24c"/><stop offset="100%" stop-color="#a44d12"/></linearGradient><linearGradient id="choco" x1="0" y1="0" x2="1" y2="0"><stop offset="0%" stop-color="#54240d"/><stop offset="50%" stop-color="#7f3512"/><stop offset="100%" stop-color="#47200d"/></linearGradient></defs><rect width="1200" height="1200" fill="url(#bg)"/><circle cx="1030" cy="170" r="110" fill="#ffe7b5" opacity="0.45"/><circle cx="880" cy="265" r="70" fill="#fff3d5" opacity="0.4"/><circle cx="250" cy="155" r="145" fill="#ab6e35" opacity="0.18"/><rect y="855" width="1200" height="345" fill="url(#table)"/><ellipse cx="614" cy="1000" rx="470" ry="86" fill="#603618" opacity="0.24"/><g transform="translate(120 520) rotate(-6 480 220)"><path d="M58 270 C210 122 373 44 575 50 C803 58 937 143 1037 279 C908 348 773 388 566 404 C342 420 194 383 58 270Z" fill="#ead9c1" opacity="0.84"/><path d="M66 278 C214 132 375 58 575 62 C786 70 922 150 1000 267 C894 319 762 357 568 372 C354 388 205 360 66 278Z" fill="url(#pastry)"/><path d="M92 250 C234 115 405 65 588 76 C768 86 904 152 974 248 C872 279 748 308 588 318 C391 332 229 312 92 250Z" fill="url(#pastryTop)"/><path d="M70 286 C232 162 384 120 568 122 C748 126 890 176 992 274 C884 322 742 360 564 372 C364 386 198 356 70 286Z" fill="url(#choco)"/><g fill="none" stroke="#f1bc71" stroke-linecap="round" opacity="0.72"><path d="M146 260 C248 170 356 130 500 118" stroke-width="12"/><path d="M210 302 C320 200 438 154 602 145" stroke-width="14"/><path d="M305 334 C424 228 546 185 706 176" stroke-width="13"/><path d="M415 354 C544 247 663 212 812 205" stroke-width="12"/><path d="M538 367 C642 281 745 245 878 236" stroke-width="11"/></g><g fill="#9a5218" opacity="0.2"><ellipse cx="290" cy="280" rx="120" ry="96"/><ellipse cx="500" cy="238" rx="120" ry="96"/><ellipse cx="715" cy="220" rx="110" ry="90"/><ellipse cx="886" cy="228" rx="92" ry="74"/></g><g fill="#9a3d18" opacity="0.9"><ellipse cx="210" cy="302" rx="58" ry="26"/><ellipse cx="318" cy="298" rx="72" ry="28"/><ellipse cx="440" cy="294" rx="82" ry="30"/><ellipse cx="566" cy="290" rx="86" ry="28"/><ellipse cx="690" cy="286" rx="82" ry="27"/><ellipse cx="810" cy="279" rx="68" ry="24"/></g></g></svg>