<svg xmlns="http://www.w3.org/2000/svg" viewBox="0 0 512 512" role="img" aria-label="Premium croissant icon"><defs><radialGradient id="a"><stop stop-color="#5a3823"/><stop offset="1" stop-color="#130a07"/></radialGradient><linearGradient id="b" x1="0" y1="0" x2="1" y2="1"><stop stop-color="#fff0b3"/><stop offset=".5" stop-color="#c58b37"/><stop offset="1" stop-color="#f5ca72"/></linearGradient><linearGradient id="c" x1="0" y1="0" x2="0" y2="1"><stop stop-color="#ffe0a0"/><stop offset=".45" stop-color="#d89034"/><stop offset="1" stop-color="#9b541f"/></linearGradient></defs><circle cx="256" cy="256" r="244" fill="#160c08"/><circle cx="256" cy="256" r="230" fill="url(#a)" stroke="url(#b)" stroke-width="7"/><ellipse cx="256" cy="370" rx="154" ry="39" fill="#f8f0e5" stroke="#c99549" stroke-width="5"/><path d="M126 308c13-75 70-130 134-130 66 0 121 55 126 132-31 22-61 30-91 23-21-5-35-17-39-37-7 20-22 32-44 37-30 7-58-1-86-25z" fill="url(#c)" stroke="#d6a154" stroke-width="7" stroke-linejoin="round"/><path d="M176 238c19 3 36 13 50 30M224 198c18 13 29 31 34 54M286 197c-17 14-28 32-32 55M334 237c-18 4-35 14-49 31" fill="none" stroke="#f8d889" stroke-width="13" stroke-linecap="round"/><path d="M151 295c20 6 38 4 54-7M361 296c-20 6-38 4-54-7" fill="none" stroke="#8a481a" stroke-width="9" stroke-linecap="round" opacity=".65"/></svg>