<svg xmlns="http://www.w3.org/2000/svg" viewBox="0 0 512 512" role="img" aria-label="Premium refresher icon"><defs><radialGradient id="a"><stop stop-color="#5a3823"/><stop offset="1" stop-color="#130a07"/></radialGradient><linearGradient id="b" x1="0" y1="0" x2="1" y2="1"><stop stop-color="#fff0b3"/><stop offset=".5" stop-color="#c58b37"/><stop offset="1" stop-color="#f5ca72"/></linearGradient><linearGradient id="c" x1="0" y1="0" x2="0" y2="1"><stop stop-color="#ffd95d"/><stop offset=".5" stop-color="#f49f38"/><stop offset="1" stop-color="#d95751"/></linearGradient></defs><circle cx="256" cy="256" r="244" fill="#160c08"/><circle cx="256" cy="256" r="230" fill="url(#a)" stroke="url(#b)" stroke-width="7"/><path d="M166 175h180l-18 207c-3 31-28 53-59 53h-26c-31 0-56-22-59-53z" fill="url(#c)" stroke="#f0d6b4" stroke-width="7"/><ellipse cx="256" cy="176" rx="90" ry="22" fill="#ffcf52" stroke="#f4e5cf" stroke-width="7"/><g fill="#fff1df" fill-opacity=".75" stroke="#fff8ef" stroke-width="4"><rect x="190" y="170" width="48" height="48" rx="8"/><rect x="235" y="164" width="50" height="50" rx="8"/><rect x="280" y="174" width="47" height="47" rx="8"/></g><path d="M318 104 276 212" stroke="#f4e4cf" stroke-width="14" stroke-linecap="round"/><path d="M185 135c26-22 56-25 86-8-17 29-45 39-86 8z" fill="#83ae4f" stroke="#3e6729" stroke-width="5"/><circle cx="324" cy="144" r="26" fill="#ef5f55" stroke="#982e2b" stroke-width="5"/></svg>