<svg xmlns="http://www.w3.org/2000/svg" viewBox="0 0 512 512" role="img" aria-label="Premium tea icon">
  <defs>
    <radialGradient id="bg" cx="50%" cy="42%" r="64%"><stop offset="0" stop-color="#5a3823"/><stop offset=".52" stop-color="#25140d"/><stop offset="1" stop-color="#130a07"/></radialGradient>
    <linearGradient id="gold" x1="0" y1="0" x2="1" y2="1"><stop stop-color="#fff0b3"/><stop offset=".35" stop-color="#d3a04e"/><stop offset=".7" stop-color="#8d5c21"/><stop offset="1" stop-color="#f5ca72"/></linearGradient>
    <linearGradient id="tea" x1="0" y1="0" x2="0" y2="1"><stop stop-color="#d59a4b"/><stop offset=".55" stop-color="#9b5d27"/><stop offset="1" stop-color="#5a2d14"/></linearGradient>
    <filter id="shadow" x="-30%" y="-30%" width="160%" height="180%"><feDropShadow dx="0" dy="18" stdDeviation="18" flood-color="#000" flood-opacity=".46"/></filter>
    <filter id="glow" x="-100%" y="-100%" width="300%" height="300%"><feGaussianBlur stdDeviation="18"/></filter>
  </defs>
  <circle cx="256" cy="256" r="244" fill="#160c08"/>
  <circle cx="256" cy="256" r="230" fill="url(#bg)" stroke="url(#gold)" stroke-width="7"/>
  <circle cx="256" cy="226" r="132" fill="#c88942" opacity=".22" filter="url(#glow)"/>
  <g filter="url(#shadow)">
    <ellipse cx="256" cy="376" rx="146" ry="38" fill="#f8f0e5" stroke="#c99549" stroke-width="5"/>
    <path d="M156 242h204l-16 102c-5 31-30 51-61 51h-54c-31 0-56-20-61-51z" fill="#fffaf3" stroke="#c99549" stroke-width="5"/>
    <path d="M160 244h196l-7 45H167z" fill="url(#tea)" opacity=".94"/>
    <path d="M357 266c62-8 79 21 67 54-10 28-38 41-73 31" fill="none" stroke="#f8f0e5" stroke-width="27" stroke-linecap="round"/>
    <path d="M357 266c62-8 79 21 67 54-10 28-38 41-73 31" fill="none" stroke="#c99549" stroke-width="5" stroke-linecap="round"/>
    <ellipse cx="256" cy="243" rx="100" ry="26" fill="#8b4d21" stroke="#efd1a1" stroke-width="5"/>
    <path d="M246 214c-12-31 20-39 10-72M292 220c-13-30 18-39 9-70" fill="none" stroke="#f1d2a3" stroke-width="10" stroke-linecap="round" opacity=".75"/>
    <path d="M196 164c34 3 56 22 64 56-36 1-59-17-64-56z" fill="#7ea348" stroke="#3b6227" stroke-width="5"/>
    <path d="M316 162c-34 3-56 22-64 56 36 1 59-17 64-56z" fill="#91b356" stroke="#3b6227" stroke-width="5"/>
  </g>
</svg>