<?xml version="1.0" encoding="UTF-8"?>
<svg xmlns="http://www.w3.org/2000/svg" viewBox="0 0 53 53" role="img" aria-labelledby="title desc" shape-rendering="crispEdges">
  <title id="title">Roby's Coffee House dijital menü QR kodu</title>
  <desc id="desc">Roby's Coffee House tam menüsünü açar.</desc>
  <rect width="53" height="53" rx="2" fill="#f4f1ec"/>
  <path d="M4 4h7v1H4zM12 4h1v1H12zM15 4h1v1H15zM17 4h6v1H17zM26 4h2v1H26zM31 4h1v1H31zM33 4h2v1H33zM40 4h1v1H40zM42 4h7v1H42zM4 5h1v1H4zM10 5h1v1H10zM12 5h2v1H12zM18 5h1v1H18zM24 5h4v1H24zM29 5h1v1H29zM31 5h5v1H31zM37 5h1v1H37zM39 5h1v1H39zM42 5h1v1H42zM48 5h1v1H48zM4 6h1v1H4zM6 6h3v1H6zM10 6h1v1H10zM14 6h4v1H14zM19 6h1v1H19zM21 6h1v1H21zM25 6h2v1H25zM28 6h1v1H28zM30 6h2v1H30zM35 6h1v1H35zM39 6h1v1H39zM42 6h1v1H42zM44 6h3v1H44zM48 6h1v1H48zM4 7h1v1H4zM6 7h3v1H6zM10 7h1v1H10zM12 7h1v1H12zM15 7h1v1H15zM17 7h1v1H17zM20 7h2v1H20zM23 7h2v1H23zM26 7h1v1H26zM28 7h4v1H28zM33 7h3v1H33zM39 7h2v1H39zM42 7h1v1H42zM44 7h3v1H44zM48 7h1v1H48zM4 8h1v1H4zM6 8h3v1H6zM10 8h1v1H10zM12 8h1v1H12zM14 8h4v1H14zM24 8h6v1H24zM31 8h1v1H31zM33 8h2v1H33zM36 8h5v1H36zM42 8h1v1H42zM44 8h3v1H44zM48 8h1v1H48zM4 9h1v1H4zM10 9h1v1H10zM12 9h4v1H12zM18 9h1v1H18zM21 9h1v1H21zM24 9h1v1H24zM28 9h1v1H28zM31 9h2v1H31zM34 9h4v1H34zM42 9h1v1H42zM48 9h1v1H48zM4 10h7v1H4zM12 10h1v1H12zM14 10h1v1H14zM16 10h1v1H16zM18 10h1v1H18zM20 10h1v1H20zM22 10h1v1H22zM24 10h1v1H24zM26 10h1v1H26zM28 10h1v1H28zM30 10h1v1H30zM32 10h1v1H32zM34 10h1v1H34zM36 10h1v1H36zM38 10h1v1H38zM40 10h1v1H40zM42 10h7v1H42zM14 11h2v1H14zM17 11h4v1H17zM22 11h1v1H22zM24 11h1v1H24zM28 11h3v1H28zM32 11h1v1H32zM36 11h1v1H36zM7 12h1v1H7zM10 12h1v1H10zM14 12h1v1H14zM16 12h1v1H16zM21 12h9v1H21zM31 12h3v1H31zM35 12h1v1H35zM37 12h1v1H37zM39 12h1v1H39zM43 12h3v1H43zM47 12h2v1H47zM7 13h1v1H7zM9 13h1v1H9zM17 13h2v1H17zM20 13h1v1H20zM24 13h1v1H24zM26 13h2v1H26zM30 13h3v1H30zM37 13h1v1H37zM39 13h1v1H39zM41 13h1v1H41zM46 13h3v1H46zM5 14h3v1H5zM9 14h3v1H9zM13 14h4v1H13zM18 14h2v1H18zM21 14h2v1H21zM24 14h4v1H24zM29 14h1v1H29zM32 14h1v1H32zM38 14h4v1H38zM43 14h1v1H43zM45 14h4v1H45zM6 15h1v1H6zM9 15h1v1H9zM12 15h1v1H12zM17 15h2v1H17zM21 15h2v1H21zM24 15h1v1H24zM28 15h1v1H28zM33 15h3v1H33zM39 15h1v1H39zM41 15h2v1H41zM44 15h2v1H44zM48 15h1v1H48zM4 16h2v1H4zM8 16h1v1H8zM10 16h2v1H10zM13 16h1v1H13zM15 16h2v1H15zM19 16h1v1H19zM22 16h1v1H22zM25 16h6v1H25zM32 16h2v1H32zM35 16h2v1H35zM38 16h1v1H38zM42 16h3v1H42zM47 16h2v1H47zM4 17h1v1H4zM6 17h1v1H6zM8 17h1v1H8zM12 17h3v1H12zM16 17h3v1H16zM21 17h2v1H21zM26 17h1v1H26zM29 17h1v1H29zM32 17h2v1H32zM36 17h1v1H36zM38 17h2v1H38zM41 17h1v1H41zM45 17h2v1H45zM48 17h1v1H48zM4 18h1v1H4zM6 18h5v1H6zM14 18h2v1H14zM18 18h3v1H18zM22 18h4v1H22zM27 18h1v1H27zM29 18h5v1H29zM35 18h1v1H35zM41 18h3v1H41zM45 18h2v1H45zM4 19h3v1H4zM11 19h1v1H11zM13 19h3v1H13zM22 19h2v1H22zM25 19h1v1H25zM28 19h1v1H28zM32 19h1v1H32zM34 19h3v1H34zM38 19h2v1H38zM42 19h3v1H42zM48 19h1v1H48zM9 20h2v1H9zM12 20h1v1H12zM14 20h3v1H14zM20 20h3v1H20zM24 20h2v1H24zM28 20h2v1H28zM31 20h2v1H31zM35 20h3v1H35zM39 20h1v1H39zM41 20h1v1H41zM43 20h1v1H43zM45 20h1v1H45zM4 21h3v1H4zM11 21h1v1H11zM14 21h1v1H14zM22 21h1v1H22zM25 21h3v1H25zM30 21h1v1H30zM33 21h3v1H33zM39 21h1v1H39zM42 21h1v1H42zM44 21h1v1H44zM4 22h1v1H4zM6 22h6v1H6zM14 22h2v1H14zM18 22h1v1H18zM22 22h6v1H22zM30 22h1v1H30zM34 22h1v1H34zM36 22h1v1H36zM39 22h2v1H39zM43 22h1v1H43zM48 22h1v1H48zM4 23h6v1H4zM11 23h2v1H11zM16 23h3v1H16zM20 23h3v1H20zM25 23h2v1H25zM28 23h1v1H28zM30 23h1v1H30zM32 23h2v1H32zM36 23h1v1H36zM39 23h2v1H39zM43 23h1v1H43zM45 23h1v1H45zM4 24h2v1H4zM8 24h5v1H8zM14 24h1v1H14zM17 24h2v1H17zM21 24h1v1H21zM24 24h8v1H24zM34 24h2v1H34zM37 24h8v1H37zM47 24h2v1H47zM8 25h1v1H8zM12 25h6v1H12zM19 25h6v1H19zM28 25h2v1H28zM32 25h2v1H32zM40 25h1v1H40zM44 25h1v1H44zM46 25h3v1H46zM4 26h1v1H4zM6 26h3v1H6zM10 26h1v1H10zM12 26h1v1H12zM16 26h3v1H16zM20 26h1v1H20zM24 26h1v1H24zM26 26h1v1H26zM28 26h1v1H28zM32 26h5v1H32zM38 26h1v1H38zM40 26h1v1H40zM42 26h1v1H42zM44 26h2v1H44zM48 26h1v1H48zM4 27h2v1H4zM8 27h1v1H8zM12 27h1v1H12zM14 27h1v1H14zM17 27h1v1H17zM21 27h2v1H21zM24 27h1v1H24zM28 27h1v1H28zM30 27h1v1H30zM32 27h1v1H32zM34 27h3v1H34zM38 27h1v1H38zM40 27h1v1H40zM44 27h2v1H44zM47 27h2v1H47zM6 28h10v1H6zM22 28h1v1H22zM24 28h6v1H24zM35 28h1v1H35zM37 28h2v1H37zM40 28h6v1H40zM47 28h1v1H47zM4 29h1v1H4zM9 29h1v1H9zM11 29h1v1H11zM14 29h1v1H14zM18 29h1v1H18zM21 29h1v1H21zM23 29h1v1H23zM25 29h1v1H25zM28 29h4v1H28zM34 29h1v1H34zM36 29h1v1H36zM38 29h1v1H38zM42 29h3v1H42zM46 29h1v1H46zM48 29h1v1H48zM5 30h1v1H5zM8 30h5v1H8zM15 30h1v1H15zM18 30h1v1H18zM24 30h6v1H24zM31 30h1v1H31zM33 30h1v1H33zM35 30h2v1H35zM41 30h1v1H41zM43 30h1v1H43zM46 30h2v1H46zM6 31h3v1H6zM12 31h1v1H12zM15 31h1v1H15zM17 31h1v1H17zM21 31h1v1H21zM23 31h2v1H23zM26 31h1v1H26zM30 31h1v1H30zM33 31h1v1H33zM35 31h2v1H35zM38 31h1v1H38zM40 31h1v1H40zM42 31h1v1H42zM48 31h1v1H48zM4 32h2v1H4zM7 32h1v1H7zM10 32h4v1H10zM15 32h1v1H15zM17 32h1v1H17zM19 32h1v1H19zM24 32h1v1H24zM27 32h2v1H27zM31 32h3v1H31zM36 32h3v1H36zM40 32h1v1H40zM42 32h3v1H42zM5 33h3v1H5zM9 33h1v1H9zM15 33h1v1H15zM17 33h1v1H17zM19 33h3v1H19zM23 33h3v1H23zM28 33h1v1H28zM30 33h2v1H30zM34 33h1v1H34zM36 33h1v1H36zM42 33h1v1H42zM45 33h1v1H45zM47 33h1v1H47zM5 34h2v1H5zM9 34h2v1H9zM14 34h4v1H14zM20 34h1v1H20zM22 34h1v1H22zM24 34h1v1H24zM26 34h2v1H26zM29 34h2v1H29zM33 34h5v1H33zM39 34h4v1H39zM44 34h5v1H44zM4 35h1v1H4zM6 35h1v1H6zM9 35h1v1H9zM11 35h1v1H11zM13 35h1v1H13zM15 35h2v1H15zM18 35h2v1H18zM22 35h2v1H22zM25 35h1v1H25zM29 35h2v1H29zM32 35h3v1H32zM36 35h2v1H36zM40 35h3v1H40zM44 35h1v1H44zM47 35h1v1H47zM4 36h1v1H4zM6 36h1v1H6zM10 36h4v1H10zM16 36h1v1H16zM18 36h2v1H18zM24 36h3v1H24zM28 36h1v1H28zM31 36h2v1H31zM34 36h2v1H34zM38 36h2v1H38zM41 36h3v1H41zM45 36h1v1H45zM47 36h1v1H47zM6 37h2v1H6zM9 37h1v1H9zM11 37h1v1H11zM13 37h1v1H13zM16 37h1v1H16zM19 37h1v1H19zM22 37h2v1H22zM28 37h1v1H28zM30 37h1v1H30zM33 37h1v1H33zM36 37h1v1H36zM41 37h2v1H41zM47 37h2v1H47zM8 38h1v1H8zM10 38h2v1H10zM13 38h1v1H13zM15 38h1v1H15zM18 38h1v1H18zM20 38h1v1H20zM22 38h1v1H22zM24 38h1v1H24zM27 38h1v1H27zM29 38h6v1H29zM37 38h2v1H37zM42 38h1v1H42zM44 38h1v1H44zM46 38h1v1H46zM48 38h1v1H48zM5 39h4v1H5zM11 39h1v1H11zM13 39h1v1H13zM16 39h2v1H16zM19 39h1v1H19zM21 39h1v1H21zM23 39h2v1H23zM26 39h2v1H26zM30 39h1v1H30zM32 39h4v1H32zM37 39h1v1H37zM39 39h3v1H39zM44 39h2v1H44zM48 39h1v1H48zM4 40h1v1H4zM7 40h2v1H7zM10 40h2v1H10zM13 40h2v1H13zM16 40h5v1H16zM23 40h6v1H23zM31 40h7v1H31zM40 40h6v1H40zM12 41h1v1H12zM16 41h2v1H16zM19 41h3v1H19zM24 41h1v1H24zM28 41h2v1H28zM33 41h1v1H33zM35 41h1v1H35zM38 41h1v1H38zM40 41h1v1H40zM44 41h2v1H44zM48 41h1v1H48zM4 42h7v1H4zM14 42h1v1H14zM18 42h1v1H18zM20 42h3v1H20zM24 42h1v1H24zM26 42h1v1H26zM28 42h1v1H28zM30 42h6v1H30zM39 42h2v1H39zM42 42h1v1H42zM44 42h4v1H44zM4 43h1v1H4zM10 43h1v1H10zM13 43h1v1H13zM21 43h1v1H21zM24 43h1v1H24zM28 43h1v1H28zM32 43h2v1H32zM35 43h2v1H35zM39 43h2v1H39zM44 43h2v1H44zM4 44h1v1H4zM6 44h3v1H6zM10 44h1v1H10zM13 44h4v1H13zM18 44h1v1H18zM20 44h10v1H20zM31 44h1v1H31zM36 44h1v1H36zM39 44h7v1H39zM47 44h2v1H47zM4 45h1v1H4zM6 45h3v1H6zM10 45h1v1H10zM12 45h1v1H12zM14 45h1v1H14zM18 45h3v1H18zM22 45h1v1H22zM24 45h2v1H24zM28 45h1v1H28zM30 45h5v1H30zM40 45h5v1H40zM4 46h1v1H4zM6 46h3v1H6zM10 46h1v1H10zM13 46h2v1H13zM16 46h1v1H16zM18 46h1v1H18zM20 46h1v1H20zM26 46h1v1H26zM32 46h1v1H32zM36 46h1v1H36zM39 46h3v1H39zM43 46h2v1H43zM48 46h1v1H48zM4 47h1v1H4zM10 47h1v1H10zM13 47h1v1H13zM17 47h1v1H17zM19 47h1v1H19zM21 47h1v1H21zM23 47h1v1H23zM26 47h1v1H26zM28 47h2v1H28zM31 47h1v1H31zM34 47h1v1H34zM40 47h1v1H40zM43 47h2v1H43zM4 48h7v1H4zM15 48h1v1H15zM17 48h2v1H17zM23 48h2v1H23zM26 48h1v1H26zM30 48h1v1H30zM38 48h1v1H38zM40 48h3v1H40zM45 48h1v1H45zM47 48h1v1H47z" fill="#241c1b"/>
</svg>
