<?xml version="1.0" encoding="UTF-8"?>
<svg xmlns="http://www.w3.org/2000/svg" viewBox="0 0 37 37" role="img" aria-labelledby="title desc" shape-rendering="crispEdges">
  <title id="title">Roby's Coffee House Instagram QR code</title>
  <desc id="desc">Opens the Roby's Coffee House Instagram profile.</desc>
  <rect width="37" height="37" rx="1.5" fill="#fff"/>
  <path d="M4 4h7v1h-7z M13 4h1v1h-1z M16 4h1v1h-1z M19 4h1v1h-1z M23 4h1v1h-1z M26 4h7v1h-7z M4 5h1v1h-1z M10 5h1v1h-1z M12 5h1v1h-1z M15 5h3v1h-3z M19 5h1v1h-1z M24 5h1v1h-1z M26 5h1v1h-1z M32 5h1v1h-1z M4 6h1v1h-1z M6 6h3v1h-3z M10 6h1v1h-1z M12 6h5v1h-5z M18 6h1v1h-1z M21 6h4v1h-4z M26 6h1v1h-1z M28 6h3v1h-3z M32 6h1v1h-1z M4 7h1v1h-1z M6 7h3v1h-3z M10 7h1v1h-1z M13 7h3v1h-3z M18 7h3v1h-3z M22 7h1v1h-1z M26 7h1v1h-1z M28 7h3v1h-3z M32 7h1v1h-1z M4 8h1v1h-1z M6 8h3v1h-3z M10 8h1v1h-1z M12 8h1v1h-1z M17 8h6v1h-6z M24 8h1v1h-1z M26 8h1v1h-1z M28 8h3v1h-3z M32 8h1v1h-1z M4 9h1v1h-1z M10 9h1v1h-1z M12 9h2v1h-2z M15 9h1v1h-1z M17 9h1v1h-1z M19 9h5v1h-5z M26 9h1v1h-1z M32 9h1v1h-1z M4 10h7v1h-7z M12 10h1v1h-1z M14 10h1v1h-1z M16 10h1v1h-1z M18 10h1v1h-1z M20 10h1v1h-1z M22 10h1v1h-1z M24 10h1v1h-1z M26 10h7v1h-7z M12 11h2v1h-2z M16 11h1v1h-1z M18 11h1v1h-1z M21 11h2v1h-2z M24 11h1v1h-1z M4 12h2v1h-2z M7 12h1v1h-1z M10 12h2v1h-2z M14 12h1v1h-1z M19 12h2v1h-2z M23 12h1v1h-1z M26 12h3v1h-3z M30 12h2v1h-2z M4 13h1v1h-1z M7 13h1v1h-1z M9 13h1v1h-1z M11 13h1v1h-1z M14 13h2v1h-2z M20 13h2v1h-2z M24 13h3v1h-3z M29 13h1v1h-1z M32 13h1v1h-1z M7 14h4v1h-4z M12 14h3v1h-3z M21 14h3v1h-3z M28 14h4v1h-4z M4 15h1v1h-1z M6 15h1v1h-1z M12 15h1v1h-1z M18 15h2v1h-2z M27 15h1v1h-1z M30 15h2v1h-2z M4 16h1v1h-1z M6 16h2v1h-2z M10 16h1v1h-1z M12 16h1v1h-1z M16 16h1v1h-1z M19 16h3v1h-3z M23 16h5v1h-5z M29 16h1v1h-1z M31 16h2v1h-2z M4 17h3v1h-3z M9 17h1v1h-1z M11 17h2v1h-2z M14 17h3v1h-3z M22 17h4v1h-4z M4 18h1v1h-1z M7 18h1v1h-1z M10 18h2v1h-2z M16 18h1v1h-1z M21 18h2v1h-2z M24 18h3v1h-3z M29 18h4v1h-4z M5 19h2v1h-2z M8 19h2v1h-2z M12 19h1v1h-1z M16 19h7v1h-7z M26 19h2v1h-2z M29 19h1v1h-1z M31 19h1v1h-1z M4 20h1v1h-1z M8 20h1v1h-1z M10 20h2v1h-2z M13 20h1v1h-1z M15 20h1v1h-1z M17 20h2v1h-2z M21 20h1v1h-1z M23 20h3v1h-3z M27 20h1v1h-1z M31 20h1v1h-1z M5 21h2v1h-2z M11 21h1v1h-1z M13 21h2v1h-2z M20 21h1v1h-1z M22 21h1v1h-1z M26 21h2v1h-2z M29 21h1v1h-1z M32 21h1v1h-1z M4 22h1v1h-1z M6 22h2v1h-2z M9 22h2v1h-2z M17 22h1v1h-1z M21 22h2v1h-2z M24 22h1v1h-1z M26 22h1v1h-1z M31 22h2v1h-2z M7 23h2v1h-2z M11 23h1v1h-1z M15 23h1v1h-1z M17 23h1v1h-1z M19 23h1v1h-1z M21 23h5v1h-5z M28 23h1v1h-1z M31 23h2v1h-2z M4 24h1v1h-1z M6 24h1v1h-1z M9 24h3v1h-3z M13 24h4v1h-4z M18 24h1v1h-1z M20 24h1v1h-1z M23 24h6v1h-6z M30 24h1v1h-1z M12 25h1v1h-1z M14 25h4v1h-4z M20 25h2v1h-2z M23 25h2v1h-2z M28 25h1v1h-1z M30 25h3v1h-3z M4 26h7v1h-7z M12 26h1v1h-1z M14 26h5v1h-5z M21 26h2v1h-2z M24 26h1v1h-1z M26 26h1v1h-1z M28 26h1v1h-1z M31 26h1v1h-1z M4 27h1v1h-1z M10 27h1v1h-1z M15 27h3v1h-3z M20 27h1v1h-1z M22 27h3v1h-3z M28 27h5v1h-5z M4 28h1v1h-1z M6 28h3v1h-3z M10 28h1v1h-1z M13 28h3v1h-3z M18 28h1v1h-1z M20 28h2v1h-2z M24 28h5v1h-5z M31 28h2v1h-2z M4 29h1v1h-1z M6 29h3v1h-3z M10 29h1v1h-1z M12 29h4v1h-4z M17 29h2v1h-2z M23 29h1v1h-1z M26 29h6v1h-6z M4 30h1v1h-1z M6 30h3v1h-3z M10 30h1v1h-1z M13 30h1v1h-1z M15 30h1v1h-1z M17 30h2v1h-2z M20 30h1v1h-1z M23 30h2v1h-2z M28 30h3v1h-3z M32 30h1v1h-1z M4 31h1v1h-1z M10 31h1v1h-1z M12 31h2v1h-2z M15 31h1v1h-1z M20 31h6v1h-6z M31 31h1v1h-1z M4 32h7v1h-7z M12 32h2v1h-2z M16 32h2v1h-2z M21 32h1v1h-1z M24 32h2v1h-2z M29 32h1v1h-1z M31 32h1v1h-1z" fill="#241c1b"/>
</svg>
