<svg xmlns="http://www.w3.org/2000/svg" viewBox="0 0 160 160" role="img" aria-labelledby="title desc">
  <title id="title">Roby's organic O</title>
  <desc id="desc">Approved red organic O brand mark.</desc>
  <path fill="#E21B23" fill-rule="evenodd" d="M151 80c0 43-31 72-72 72C36 152 8 122 8 80 8 36 38 8 80 8c29 0 49 10 61 27 7 9 4 17 8 24 5 9 17 10 21 20 3 9-4 18-19 1zm-37-48c-10-5-22-7-35-7-31 0-53 22-53 54 0 31 22 54 54 54 29 0 50-19 53-47 1-10-5-15-15-18-15-4-23-12-26-27-2-11-6-16-15-19 12 0 25 3 37 10z"/>
</svg>
