<svg xmlns="http://www.w3.org/2000/svg" viewBox="0 0 620 200" role="img" aria-labelledby="title desc">
  <title id="title">Roby's mobile lockup</title>
  <desc id="desc">Approved compact Roby's SVG-path wordmark inside a rounded mobile pill.</desc>
  <defs>
    <filter id="shadow" x="-20%" y="-30%" width="140%" height="170%">
      <feDropShadow dx="0" dy="10" stdDeviation="12" flood-color="#111111" flood-opacity=".14"/>
    </filter>
  </defs>
  <rect x="25" y="24" width="570" height="145" rx="72" fill="#ffffff" filter="url(#shadow)"/>
  <g transform="translate(125 32) scale(.85)">
    <g fill="#111111">
      <path d="M8 18h22v114H8zM30 18h34c28 0 44 15 44 37 0 17-9 29-26 35l32 42H86L57 94H30V74h31c15 0 24-7 24-19s-9-18-24-18H30z" transform="translate(4 0) scale(.65 1)"/>
      <path d="M211 18h22v114h-22zM233 18h33c27 0 43 13 43 32 0 14-8 25-21 30 17 5 26 17 26 34 0 22-17 36-48 36h-33v-20h31c17 0 26-6 26-18 0-11-9-17-26-17h-31V76h29c16 0 24-6 24-17 0-10-8-16-24-16h-29z" transform="translate(62 0) scale(.65 1)"/>
      <path d="M322 18h26l24 43 24-43h27l-40 68v46h-23V86z" transform="translate(62 0) scale(.65 1)"/>
      <path d="M486 35c-10-14-23-21-39-21-29 0-47 15-47 38 0 23 18 34 41 41 18 6 29 11 29 23 0 11-9 18-24 18-18 0-31-9-41-24l-15 13c12 19 29 29 53 29 31 0 51-16 51-40 0-25-18-36-43-44-18-6-28-10-28-21 0-9 8-15 21-15 15 0 26 7 34 19z" transform="translate(105 -2) scale(.65 1)"/>
    </g>
    <path fill="#E21B23" fill-rule="evenodd" d="M50 4C77.7 4 96 22.9 96 50.3 96 77.6 77.2 96 49.8 96 22.7 96 4 77.2 4 50.1 4 22.8 22.7 4 50 4Zm-.8 19.8c-15.5-.7-27 9-28.2 24.2-1.3 16.8 9.8 29.3 25.7 30.8 14.8 1.4 27.6-8.8 30.9-21.2 2.2-8.1-4.8-9.4-9-14.4-6.8-8.1-4.6-18.7-19.4-19.4Z" transform="translate(85 18) scale(1.12)"/>
    <path fill="#E21B23" d="M343 8h14l-6 24h-12z"/>
  </g>
</svg>
