<svg xmlns="http://www.w3.org/2000/svg" viewBox="0 0 500 150" role="img" aria-labelledby="title desc">
  <title id="title">Roby's</title>
  <desc id="desc">Approved compact Roby's wordmark with a red organic O.</desc>
  <g fill="#111111">
    <path d="M8 18h22v114H8zM30 18h34c28 0 44 15 44 37 0 17-9 29-26 35l32 42H86L57 94H30V74h31c15 0 24-7 24-19s-9-18-24-18H30z"/>
    <path d="M211 18h22v114h-22zM233 18h33c27 0 43 13 43 32 0 14-8 25-21 30 17 5 26 17 26 34 0 22-17 36-48 36h-33v-20h31c17 0 26-6 26-18 0-11-9-17-26-17h-31V76h29c16 0 24-6 24-17 0-10-8-16-24-16h-29z"/>
    <path d="M322 18h26l24 43 24-43h27l-40 68v46h-23V86z"/>
    <path d="M486 35c-10-14-23-21-39-21-29 0-47 15-47 38 0 23 18 34 41 41 18 6 29 11 29 23 0 11-9 18-24 18-18 0-31-9-41-24l-15 13c12 19 29 29 53 29 31 0 51-16 51-40 0-25-18-36-43-44-18-6-28-10-28-21 0-9 8-15 21-15 15 0 26 7 34 19z" transform="translate(-6 -2) scale(.82 1)"/>
  </g>
  <path fill="#E21B23" fill-rule="evenodd" d="M194 74c0 34-24 60-57 60-35 0-60-24-60-58 0-35 25-61 59-61 24 0 40 8 50 21 5 7 3 13 6 18 4 7 14 7 17 15 2 7-3 14-15 5zm-29-37c-8-4-18-6-29-6-25 0-42 18-42 43 0 24 17 42 43 42 23 0 40-15 42-37 1-8-4-12-12-14-12-3-18-9-20-21-2-9-5-12-12-15 9 0 20 2 30 8z"/>
  <path fill="#E21B23" d="M407 8h14l-6 24h-12z"/>
</svg>
