<svg xmlns="http://www.w3.org/2000/svg" viewBox="0 0 1260 210" role="img" aria-labelledby="title desc">
  <title id="title">Roby's Coffee House</title>
  <desc id="desc">Approved primary Roby's Coffee House wordmark with Fresh Coffee Point tagline.</desc>
  <defs>
    <g id="gF" fill="none" stroke="#111" stroke-width="7" stroke-linecap="square"><path d="M6 104V8h36M6 50h29"/></g>
    <g id="gR" fill="none" stroke="#111" stroke-width="7" stroke-linecap="square" stroke-linejoin="round"><path d="M6 104V8h20c17 0 26 10 26 23s-9 23-26 23H6M27 54l27 50"/></g>
    <g id="gE" fill="none" stroke="#111" stroke-width="7" stroke-linecap="square"><path d="M42 8H6v96h36M6 53h29"/></g>
    <g id="gS" fill="none" stroke="#111" stroke-width="7" stroke-linecap="round"><path d="M46 19C39 10 31 6 22 8 10 10 5 19 6 30c1 14 12 19 24 25 13 6 22 13 21 27-1 15-11 24-25 24-11 0-20-5-26-15"/></g>
    <g id="gH" fill="none" stroke="#111" stroke-width="7" stroke-linecap="square"><path d="M6 8v96M48 8v96M6 54h42"/></g>
    <g id="gC" fill="none" stroke="#111" stroke-width="7" stroke-linecap="round"><path d="M47 20C40 10 31 7 22 9 9 12 5 27 5 56s4 44 17 47c10 2 19-2 26-13"/></g>
    <g id="gO" fill="none" stroke="#111" stroke-width="7"><ellipse cx="27" cy="56" rx="22" ry="49"/></g>
    <g id="gP" fill="none" stroke="#111" stroke-width="7" stroke-linejoin="round"><path d="M6 104V8h21c17 0 26 10 26 24s-9 24-26 24H6"/></g>
    <g id="gI" fill="none" stroke="#111" stroke-width="7" stroke-linecap="square"><path d="M25 8v96M8 8h34M8 104h34"/></g>
    <g id="gN" fill="none" stroke="#111" stroke-width="7" stroke-linejoin="round"><path d="M6 104V8l44 96V8"/></g>
    <g id="gT" fill="none" stroke="#111" stroke-width="7" stroke-linecap="square"><path d="M4 8h48M28 8v96"/></g>
  </defs>

  <g transform="translate(4 5) scale(.78)">
    <g fill="#111111">
      <path d="M8 18h22v114H8zM30 18h34c28 0 44 15 44 37 0 17-9 29-26 35l32 42H86L57 94H30V74h31c15 0 24-7 24-19s-9-18-24-18H30z"/>
      <path d="M211 18h22v114h-22zM233 18h33c27 0 43 13 43 32 0 14-8 25-21 30 17 5 26 17 26 34 0 22-17 36-48 36h-33v-20h31c17 0 26-6 26-18 0-11-9-17-26-17h-31V76h29c16 0 24-6 24-17 0-10-8-16-24-16h-29z"/>
      <path d="M322 18h26l24 43 24-43h27l-40 68v46h-23V86z"/>
      <path d="M486 35c-10-14-23-21-39-21-29 0-47 15-47 38 0 23 18 34 41 41 18 6 29 11 29 23 0 11-9 18-24 18-18 0-31-9-41-24l-15 13c12 19 29 29 53 29 31 0 51-16 51-40 0-25-18-36-43-44-18-6-28-10-28-21 0-9 8-15 21-15 15 0 26 7 34 19z" transform="translate(-6 -2) scale(.82 1)"/>
    </g>
    <path fill="#E21B23" fill-rule="evenodd" d="M194 74c0 34-24 60-57 60-35 0-60-24-60-58 0-35 25-61 59-61 24 0 40 8 50 21 5 7 3 13 6 18 4 7 14 7 17 15 2 7-3 14-15 5zm-29-37c-8-4-18-6-29-6-25 0-42 18-42 43 0 24 17 42 43 42 23 0 40-15 42-37 1-8-4-12-12-14-12-3-18-9-20-21-2-9-5-12-12-15 9 0 20 2 30 8z"/>
    <path fill="#E21B23" d="M407 8h14l-6 24h-12z"/>
  </g>

  <g transform="translate(410 8)" fill="none" stroke="#111111" stroke-width="7" stroke-linecap="round" stroke-linejoin="round">
    <path d="M50 24C42 12 31 8 21 11 8 15 4 33 4 74s4 58 17 62c11 3 21-2 29-15"/>
    <ellipse cx="91" cy="74" rx="24" ry="63"/>
    <path d="M132 137V11h47M132 73h38"/>
    <path d="M197 137V11h47M197 73h38"/>
    <path d="M309 11h-47v126h47M262 73h39"/>
    <path d="M374 11h-47v126h47M327 73h39"/>
    <path d="M431 11v126M481 11v126M431 74h50"/>
    <ellipse cx="546" cy="74" rx="24" ry="63"/>
    <path d="M588 11v91c0 24 11 36 29 36s29-12 29-36V11"/>
    <path d="M707 26c-9-13-20-18-31-15-14 3-21 14-19 29 2 18 15 25 31 33 17 8 28 17 26 36-2 19-14 31-32 31-14 0-26-7-34-20"/>
    <path d="M777 11h-47v126h47M730 73h39"/>
  </g>

  <g transform="translate(278 157) scale(.28)">
    <circle cx="-70" cy="53" r="10" fill="#111"/>
    <use href="#gF" x="0"/><use href="#gR" x="67"/><use href="#gE" x="137"/><use href="#gS" x="202"/><use href="#gH" x="270"/>
    <use href="#gC" x="390"/><use href="#gO" x="455"/><use href="#gF" x="520"/><use href="#gF" x="585"/><use href="#gE" x="650"/><use href="#gE" x="715"/>
    <use href="#gP" x="835"/><use href="#gO" x="900"/><use href="#gI" x="965"/><use href="#gN" x="1030"/><use href="#gT" x="1100"/>
    <circle cx="1225" cy="53" r="10" fill="#111"/>
  </g>
</svg>
