<?xml version="1.0" encoding="UTF-8"?>
<svg xmlns="http://www.w3.org/2000/svg" viewBox="0 0 53 53" role="img" aria-labelledby="title desc">
  <title id="title">Roby's Coffee House dijital menü QR kodu</title>
  <desc id="desc">Roby's Coffee House tam menüsünü açar.</desc>
  <rect width="53" height="53" rx="2" fill="#f4f1ec"/>
  <path d="M4,4H5V5H4zM5,4H6V5H5zM6,4H7V5H6zM7,4H8V5H7zM8,4H9V5H8zM9,4H10V5H9zM10,4H11V5H10zM12,4H13V5H12zM15,4H16V5H15zM17,4H18V5H17zM18,4H19V5H18zM19,4H20V5H19zM20,4H21V5H20zM21,4H22V5H21zM22,4H23V5H22zM26,4H27V5H26zM27,4H28V5H27zM31,4H32V5H31zM33,4H34V5H33zM34,4H35V5H34zM40,4H41V5H40zM42,4H43V5H42zM43,4H44V5H43zM44,4H45V5H44zM45,4H46V5H45zM46,4H47V5H46zM47,4H48V5H47zM48,4H49V5H48zM4,5H5V6H4zM10,5H11V6H10zM12,5H13V6H12zM16,5H17V6H16zM18,5H19V6H18zM20,5H21V6H20zM22,5H23V6H22zM25,5H26V6H25zM27,5H28V6H27zM28,5H29V6H28zM30,5H31V6H30zM31,5H32V6H31zM34,5H35V6H34zM35,5H36V6H35zM36,5H37V6H36zM38,5H39V6H38zM40,5H41V6H40zM42,5H43V6H42zM48,5H49V6H48zM4,6H5V7H4zM6,6H7V7H6zM7,6H8V7H7zM8,6H9V7H8zM10,6H11V7H10zM12,6H13V7H12zM13,6H14V7H13zM14,6H15V7H14zM15,6H16V7H15zM16,6H17V7H16zM20,6H21V7H20zM22,6H23V7H22zM23,6H24V7H23zM25,6H26V7H25zM26,6H27V7H26zM28,6H29V7H28zM31,6H32V7H31zM33,6H34V7H33zM34,6H35V7H34zM35,6H36V7H35zM36,6H37V7H36zM37,6H38V7H37zM40,6H41V7H40zM42,6H43V7H42zM44,6H45V7H44zM45,6H46V7H45zM46,6H47V7H46zM48,6H49V7H48zM4,7H5V8H4zM6,7H7V8H6zM7,7H8V8H7zM8,7H9V8H8zM10,7H11V8H10zM12,7H13V8H12zM13,7H14V8H13zM14,7H15V8H14zM15,7H16V8H15zM16,7H17V8H16zM18,7H19V8H18zM21,7H22V8H21zM22,7H23V8H22zM24,7H25V8H24zM25,7H26V8H25zM27,7H28V8H27zM31,7H32V8H31zM32,7H33V8H32zM34,7H35V8H34zM37,7H38V8H37zM40,7H41V8H40zM42,7H43V8H42zM44,7H45V8H44zM45,7H46V8H45zM46,7H47V8H46zM48,7H49V8H48zM4,8H5V9H4zM6,8H7V9H6zM7,8H8V9H7zM8,8H9V9H8zM10,8H11V9H10zM14,8H15V9H14zM16,8H17V9H16zM17,8H18V9H17zM18,8H19V9H18zM19,8H20V9H19zM20,8H21V9H20zM21,8H22V9H21zM22,8H23V9H22zM24,8H25V9H24zM25,8H26V9H25zM26,8H27V9H26zM27,8H28V9H27zM28,8H29V9H28zM29,8H30V9H29zM30,8H31V9H30zM31,8H32V9H31zM32,8H33V9H32zM34,8H35V9H34zM35,8H36V9H35zM37,8H38V9H37zM38,8H39V9H38zM40,8H41V9H40zM42,8H43V9H42zM44,8H45V9H44zM45,8H46V9H45zM46,8H47V9H46zM48,8H49V9H48zM4,9H5V10H4zM10,9H11V10H10zM12,9H13V10H12zM14,9H15V10H14zM17,9H18V10H17zM19,9H20V10H19zM22,9H23V10H22zM24,9H25V10H24zM26,9H27V10H26zM28,9H29V10H28zM30,9H31V10H30zM31,9H32V10H31zM34,9H35V10H34zM37,9H38V10H37zM40,9H41V10H40zM42,9H43V10H42zM48,9H49V10H48zM4,10H5V11H4zM5,10H6V11H5zM6,10H7V11H6zM7,10H8V11H7zM8,10H9V11H8zM9,10H10V11H9zM10,10H11V11H10zM12,10H13V11H12zM14,10H15V11H14zM16,10H17V11H16zM18,10H19V11H18zM20,10H21V11H20zM22,10H23V11H22zM24,10H25V11H24zM26,10H27V11H26zM28,10H29V11H28zM30,10H31V11H30zM32,10H33V11H32zM34,10H35V11H34zM36,10H37V11H36zM38,10H39V11H38zM40,10H41V11H40zM42,10H43V11H42zM43,10H44V11H43zM44,10H45V11H44zM45,10H46V11H45zM46,10H47V11H46zM47,10H48V11H47zM48,10H49V11H48zM13,11H14V12H13zM15,11H16V12H15zM17,11H18V12H17zM19,11H20V12H19zM21,11H22V12H21zM22,11H23V12H22zM26,11H27V12H26zM27,11H28V12H27zM28,11H29V12H28zM29,11H30V12H29zM30,11H31V12H30zM31,11H32V12H31zM32,11H33V12H32zM33,11H34V12H33zM34,11H35V12H34zM36,11H37V12H36zM38,11H39V12H38zM4,12H5V13H4zM5,12H6V13H5zM7,12H8V13H7zM8,12H9V13H8zM10,12H11V13H10zM12,12H13V13H12zM13,12H14V13H13zM15,12H16V13H15zM17,12H18V13H17zM18,12H19V13H18zM19,12H20V13H19zM20,12H21V13H20zM22,12H23V13H22zM24,12H25V13H24zM25,12H26V13H25zM26,12H27V13H26zM28,12H29V13H28zM30,12H31V13H30zM31,12H32V13H31zM32,12H33V13H32zM34,12H35V13H34zM36,12H37V13H36zM38,12H39V13H38zM40,12H41V13H40zM42,12H43V13H42zM44,12H45V13H44zM45,12H46V13H45zM46,12H47V13H46zM48,12H49V13H48zM4,13H5V14H4zM5,13H6V14H5zM6,13H7V14H6zM7,13H8V14H7zM9,13H10V14H9zM11,13H12V14H11zM12,13H13V14H12zM13,13H14V14H13zM14,13H15V14H14zM15,13H16V14H15zM16,13H17V14H16zM17,13H18V14H17zM18,13H19V14H18zM19,13H20V14H19zM20,13H21V14H20zM21,13H22V14H21zM22,13H23V14H22zM23,13H24V14H23zM24,13H25V14H24zM27,13H28V14H27zM28,13H29V14H28zM31,13H32V14H31zM32,13H33V14H32zM34,13H35V14H34zM35,13H36V14H35zM36,13H37V14H36zM37,13H38V14H37zM40,13H41V14H40zM42,13H43V14H42zM45,13H46V14H45zM46,13H47V14H46zM48,13H49V14H48zM5,14H6V15H5zM6,14H7V15H6zM9,14H10V15H9zM10,14H11V15H10zM11,14H12V15H11zM12,14H13V15H12zM15,14H16V15H15zM17,14H18V15H17zM18,14H19V15H18zM21,14H22V15H21zM23,14H24V15H23zM25,14H26V15H25zM27,14H28V15H27zM28,14H29V15H28zM29,14H30V15H29zM31,14H32V15H31zM32,14H33V15H32zM33,14H34V15H33zM36,14H37V15H36zM38,14H39V15H38zM39,14H40V15H39zM40,14H41V15H40zM42,14H43V15H42zM44,14H45V15H44zM46,14H47V15H46zM48,14H49V15H48zM4,15H5V16H4zM6,15H7V16H6zM7,15H8V16H7zM8,15H9V16H8zM10,15H11V16H10zM11,15H12V16H11zM14,15H15V16H14zM15,15H16V16H15zM16,15H17V16H16zM18,15H19V16H18zM19,15H20V16H19zM20,15H21V16H20zM23,15H24V16H23zM24,15H25V16H24zM25,15H26V16H25zM26,15H27V16H26zM28,15H29V16H28zM29,15H30V16H29zM30,15H31V16H30zM31,15H32V16H31zM32,15H33V16H32zM33,15H34V16H33zM35,15H36V16H35zM39,15H40V16H39zM41,15H42V16H41zM42,15H43V16H42zM44,15H45V16H44zM45,15H46V16H45zM46,15H47V16H46zM47,15H48V16H47zM48,15H49V16H48zM4,16H5V17H4zM5,16H6V17H5zM7,16H8V17H7zM9,16H10V17H9zM11,16H12V17H11zM13,16H14V17H13zM15,16H16V17H15zM17,16H18V17H17zM19,16H20V17H19zM21,16H22V17H21zM22,16H23V17H22zM24,16H25V17H24zM27,16H28V17H27zM28,16H29V17H28zM30,16H31V17H30zM31,16H32V17H31zM32,16H33V17H32zM33,16H34V17H33zM36,16H37V17H36zM38,16H39V17H38zM39,16H40V17H39zM40,16H41V17H40zM41,16H42V17H41zM43,16H44V17H43zM44,16H45V17H44zM45,16H46V17H45zM48,16H49V17H48zM5,17H6V18H5zM8,17H9V18H8zM9,17H10V18H9zM10,17H11V18H10zM11,17H12V18H11zM13,17H14V18H13zM15,17H16V18H15zM18,17H19V18H18zM19,17H20V18H19zM20,17H21V18H20zM23,17H24V18H23zM24,17H25V18H24zM27,17H28V18H27zM29,17H30V18H29zM30,17H31V18H30zM34,17H35V18H34zM35,17H36V18H35zM36,17H37V18H36zM39,17H40V18H39zM40,17H41V18H40zM41,17H42V18H41zM43,17H44V18H43zM45,17H46V18H45zM46,17H47V18H46zM48,17H49V18H48zM4,18H5V19H4zM7,18H8V19H7zM10,18H11V19H10zM12,18H13V19H12zM14,18H15V19H14zM15,18H16V19H15zM16,18H17V19H16zM17,18H18V19H17zM18,18H19V19H18zM20,18H21V19H20zM23,18H24V19H23zM25,18H26V19H25zM26,18H27V19H26zM28,18H29V19H28zM30,18H31V19H30zM32,18H33V19H32zM33,18H34V19H33zM34,18H35V19H34zM37,18H38V19H37zM38,18H39V19H38zM40,18H41V19H40zM43,18H44V19H43zM45,18H46V19H45zM46,18H47V19H46zM47,18H48V19H47zM4,19H5V20H4zM6,19H7V20H6zM8,19H9V20H8zM10,19H11V20H10zM12,19H13V20H12zM13,19H14V20H13zM16,19H17V20H16zM18,19H19V20H18zM19,19H20V20H19zM21,19H22V20H21zM23,19H24V20H23zM24,19H25V20H24zM25,19H26V20H25zM26,19H27V20H26zM27,19H28V20H27zM28,19H29V20H28zM30,19H31V20H30zM31,19H32V20H31zM32,19H33V20H32zM34,19H35V20H34zM35,19H36V20H35zM38,19H39V20H38zM41,19H42V20H41zM42,19H43V20H42zM45,19H46V20H45zM46,19H47V20H46zM47,19H48V20H47zM48,19H49V20H48zM4,20H5V21H4zM5,20H6V21H5zM8,20H9V21H8zM9,20H10V21H9zM12,20H13V21H12zM14,20H15V21H14zM16,20H17V21H16zM19,20H20V21H19zM20,20H21V21H20zM22,20H23V21H22zM26,20H27V21H26zM28,20H29V21H28zM30,20H31V21H30zM31,20H32V21H31zM33,20H34V21H33zM34,20H35V21H34zM35,20H36V21H35zM37,20H38V21H37zM39,20H40V21H39zM41,20H42V21H41zM43,20H44V21H43zM44,20H45V21H44zM47,20H48V21H47zM5,21H6V22H5zM7,21H8V22H7zM8,21H9V22H8zM11,21H12V22H11zM13,21H14V22H13zM14,21H15V22H14zM15,21H16V22H15zM17,21H18V22H17zM18,21H19V22H18zM20,21H21V22H20zM21,21H22V22H21zM22,21H23V22H22zM24,21H25V22H24zM25,21H26V22H25zM26,21H27V22H26zM27,21H28V22H27zM28,21H29V22H28zM29,21H30V22H29zM31,21H32V22H31zM34,21H35V22H34zM35,21H36V22H35zM36,21H37V22H36zM39,21H40V22H39zM40,21H41V22H40zM41,21H42V22H41zM42,21H43V22H42zM43,21H44V22H43zM45,21H46V22H45zM47,21H48V22H47zM48,21H49V22H48zM4,22H5V23H4zM6,22H7V23H6zM7,22H8V23H7zM9,22H10V23H9zM10,22H11V23H10zM12,22H13V23H12zM13,22H14V23H13zM15,22H16V23H15zM17,22H18V23H17zM21,22H22V23H21zM22,22H23V23H22zM25,22H26V23H25zM26,22H27V23H26zM28,22H29V23H28zM29,22H30V23H29zM31,22H32V23H31zM32,22H33V23H32zM33,22H34V23H33zM34,22H35V23H34zM36,22H37V23H36zM37,22H38V23H37zM39,22H40V23H39zM41,22H42V23H41zM42,22H43V23H42zM43,22H44V23H43zM45,22H46V23H45zM47,22H48V23H47zM48,22H49V23H48zM6,23H7V24H6zM7,23H8V24H7zM8,23H9V24H8zM12,23H13V24H12zM14,23H15V24H14zM15,23H16V24H15zM16,23H17V24H16zM17,23H18V24H17zM18,23H19V24H18zM19,23H20V24H19zM20,23H21V24H20zM21,23H22V24H21zM22,23H23V24H22zM23,23H24V24H23zM25,23H26V24H25zM26,23H27V24H26zM27,23H28V24H27zM29,23H30V24H29zM31,23H32V24H31zM32,23H33V24H32zM33,23H34V24H33zM34,23H35V24H34zM36,23H37V24H36zM38,23H39V24H38zM41,23H42V24H41zM42,23H43V24H42zM44,23H45V24H44zM45,23H46V24H45zM47,23H48V24H47zM48,23H49V24H48zM4,24H5V25H4zM5,24H6V25H5zM6,24H7V25H6zM7,24H8V25H7zM10,24H11V25H10zM12,24H13V25H12zM13,24H14V25H13zM15,24H16V25H15zM16,24H17V25H16zM17,24H18V25H17zM19,24H20V25H19zM22,24H23V25H22zM24,24H25V25H24zM25,24H26V25H25zM27,24H28V25H27zM29,24H30V25H29zM32,24H33V25H32zM34,24H35V25H34zM35,24H36V25H35zM38,24H39V25H38zM39,24H40V25H39zM41,24H42V25H41zM43,24H44V25H43zM44,24H45V25H44zM46,24H47V25H46zM47,24H48V25H47zM48,24H49V25H48zM5,25H6V26H5zM6,25H7V26H6zM7,25H8V26H7zM8,25H9V26H8zM10,25H11V26H10zM12,25H13V26H12zM13,25H14V26H13zM15,25H16V26H15zM18,25H19V26H18zM19,25H20V26H19zM22,25H23V26H22zM23,25H24V26H23zM24,25H25V26H24zM26,25H27V26H26zM27,25H28V26H27zM29,25H30V26H29zM30,25H31V26H30zM31,25H32V26H31zM32,25H33V26H32zM33,25H34V26H33zM34,25H35V26H34zM35,25H36V26H35zM36,25H37V26H36zM38,25H39V26H38zM41,25H42V26H41zM44,25H45V26H44zM46,25H47V26H46zM48,25H49V26H48zM4,26H5V27H4zM5,26H6V27H5zM6,26H7V27H6zM7,26H8V27H7zM9,26H10V27H9zM10,26H11V27H10zM13,26H14V27H13zM14,26H15V27H14zM15,26H16V27H15zM16,26H17V27H16zM17,26H18V27H17zM18,26H19V27H18zM20,26H21V27H20zM21,26H22V27H21zM23,26H24V27H23zM25,26H26V27H25zM27,26H28V27H27zM28,26H29V27H28zM30,26H31V27H30zM31,26H32V27H31zM34,26H35V27H34zM35,26H36V27H35zM37,26H38V27H37zM40,26H41V27H40zM41,26H42V27H41zM42,26H43V27H42zM43,26H44V27H43zM45,26H46V27H45zM46,26H47V27H46zM47,26H48V27H47zM48,26H49V27H48zM4,27H5V28H4zM6,27H7V28H6zM8,27H9V28H8zM10,27H11V28H10zM11,27H12V28H11zM13,27H14V28H13zM14,27H15V28H14zM16,27H17V28H16zM18,27H19V28H18zM19,27H20V28H19zM20,27H21V28H20zM22,27H23V28H22zM23,27H24V28H23zM24,27H25V28H24zM25,27H26V28H25zM26,27H27V28H26zM27,27H28V28H27zM28,27H29V28H28zM29,27H30V28H29zM30,27H31V28H30zM33,27H34V28H33zM34,27H35V28H34zM36,27H37V28H36zM37,27H38V28H37zM38,27H39V28H38zM39,27H40V28H39zM40,27H41V28H40zM42,27H43V28H42zM44,27H45V28H44zM45,27H46V28H45zM47,27H48V28H47zM4,28H5V29H4zM5,28H6V29H5zM6,28H7V29H6zM8,28H9V29H8zM9,28H10V29H9zM10,28H11V29H10zM12,28H13V29H12zM15,28H16V29H15zM17,28H18V29H17zM18,28H19V29H18zM20,28H21V29H20zM22,28H23V29H22zM24,28H25V29H24zM27,28H28V29H27zM29,28H30V29H29zM31,28H32V29H31zM34,28H35V29H34zM36,28H37V29H36zM39,28H40V29H39zM40,28H41V29H40zM42,28H43V29H42zM45,28H46V29H45zM48,28H49V29H48zM5,29H6V30H5zM6,29H7V30H6zM7,29H8V30H7zM11,29H12V30H11zM12,29H13V30H12zM13,29H14V30H13zM15,29H16V30H15zM16,29H17V30H16zM17,29H18V30H17zM18,29H19V30H18zM19,29H20V30H19zM20,29H21V30H20zM22,29H23V30H22zM26,29H27V30H26zM27,29H28V30H27zM28,29H29V30H28zM29,29H30V30H29zM32,29H33V30H32zM33,29H34V30H33zM34,29H35V30H34zM35,29H36V30H35zM37,29H38V30H37zM39,29H40V30H39zM41,29H42V30H41zM43,29H44V30H43zM45,29H46V30H45zM46,29H47V30H46zM48,29H49V30H48zM4,30H5V31H4zM6,30H7V31H6zM8,30H9V31H8zM10,30H11V31H10zM11,30H12V31H11zM13,30H14V31H13zM16,30H17V31H16zM17,30H18V31H17zM20,30H21V31H20zM21,30H22V31H21zM24,30H25V31H24zM25,30H26V31H25zM26,30H27V31H26zM28,30H29V31H28zM31,30H32V31H31zM32,30H33V31H32zM33,30H34V31H33zM35,30H36V31H35zM36,30H37V31H36zM37,30H38V31H37zM38,30H39V31H38zM39,30H40V31H39zM40,30H41V31H40zM42,30H43V31H42zM45,30H46V31H45zM46,30H47V31H46zM48,30H49V31H48zM4,31H5V32H4zM5,31H6V32H5zM8,31H9V32H8zM11,31H12V32H11zM12,31H13V32H12zM14,31H15V32H14zM16,31H17V32H16zM19,31H20V32H19zM20,31H21V32H20zM21,31H22V32H21zM23,31H24V32H23zM25,31H26V32H25zM26,31H27V32H26zM27,31H28V32H27zM28,31H29V32H28zM31,31H32V32H31zM33,31H34V32H33zM35,31H36V32H35zM38,31H39V32H38zM40,31H41V32H40zM43,31H44V32H43zM44,31H45V32H44zM45,31H46V32H45zM46,31H47V32H46zM47,31H48V32H47zM48,31H49V32H48zM4,32H5V33H4zM6,32H7V33H6zM7,32H8V33H7zM9,32H10V33H9zM10,32H11V33H10zM11,32H12V33H11zM12,32H13V33H12zM14,32H15V33H14zM15,32H16V33H15zM16,32H17V33H16zM18,32H19V33H18zM21,32H22V33H21zM23,32H24V33H23zM24,32H25V33H24zM27,32H28V33H27zM28,32H29V33H28zM29,32H30V33H29zM30,32H31V33H30zM32,32H33V33H32zM34,32H35V33H34zM36,32H37V33H36zM37,32H38V33H37zM39,32H40V33H39zM41,32H42V33H41zM42,32H43V33H42zM43,32H44V33H43zM44,32H45V33H44zM45,32H46V33H45zM46,32H47V33H46zM47,32H48V33H47zM48,32H49V33H48zM5,33H6V34H5zM6,33H7V34H6zM7,33H8V34H7zM10,33H11V34H10zM12,33H13V34H12zM13,33H14V34H13zM14,33H15V34H14zM17,33H18V34H17zM18,33H19V34H18zM21,33H22V34H21zM22,33H23V34H22zM23,33H24V34H23zM25,33H26V34H25zM26,33H27V34H26zM27,33H28V34H27zM29,33H30V34H29zM31,33H32V34H31zM32,33H33V34H32zM35,33H36V34H35zM37,33H38V34H37zM38,33H39V34H38zM40,33H41V34H40zM41,33H42V34H41zM45,33H46V34H45zM46,33H47V34H46zM47,33H48V34H47zM48,33H49V34H48zM4,34H5V35H4zM5,34H6V35H5zM6,34H7V35H6zM9,34H10V35H9zM11,34H12V35H11zM12,34H13V35H12zM14,34H15V35H14zM15,34H16V35H15zM18,34H19V35H18zM20,34H21V35H20zM21,34H22V35H21zM22,34H23V35H22zM24,34H25V35H24zM27,34H28V35H27zM29,34H30V35H29zM31,34H32V35H31zM33,34H34V35H33zM34,34H35V35H34zM35,34H36V35H35zM36,34H37V35H36zM38,34H39V35H38zM40,34H41V35H40zM41,34H42V35H41zM42,34H43V35H42zM43,34H44V35H43zM45,34H46V35H45zM48,34H49V35H48zM4,35H5V36H4zM5,35H6V36H5zM7,35H8V36H7zM8,35H9V36H8zM9,35H10V36H9zM10,35H11V36H10zM11,35H12V36H11zM12,35H13V36H12zM13,35H14V36H13zM14,35H15V36H14zM15,35H16V36H15zM17,35H18V36H17zM19,35H20V36H19zM21,35H22V36H21zM23,35H24V36H23zM25,35H26V36H25zM26,35H27V36H26zM27,35H28V36H27zM28,35H29V36H28zM29,35H30V36H29zM30,35H31V36H30zM33,35H34V36H33zM34,35H35V36H34zM36,35H37V36H36zM37,35H38V36H37zM38,35H39V36H38zM39,35H40V36H39zM40,35H41V36H40zM41,35H42V36H41zM42,35H43V36H42zM43,35H44V36H43zM45,35H46V36H45zM47,35H48V36H47zM48,35H49V36H48zM4,36H5V37H4zM7,36H8V37H7zM9,36H10V37H9zM12,36H13V37H12zM13,36H14V37H13zM16,36H17V37H16zM19,36H20V37H19zM21,36H22V37H21zM23,36H24V37H23zM24,36H25V37H24zM26,36H27V37H26zM28,36H29V37H28zM31,36H32V37H31zM34,36H35V37H34zM36,36H37V37H36zM37,36H38V37H37zM38,36H39V37H38zM41,36H42V37H41zM43,36H44V37H43zM44,36H45V37H44zM46,36H47V37H46zM47,36H48V37H47zM48,36H49V37H48zM5,37H6V38H5zM7,37H8V38H7zM8,37H9V38H8zM11,37H12V38H11zM14,37H15V38H14zM15,37H16V38H15zM16,37H17V38H16zM17,37H18V38H17zM19,37H20V38H19zM20,37H21V38H20zM21,37H22V38H21zM23,37H24V38H23zM24,37H25V38H24zM27,37H28V38H27zM28,37H29V38H28zM29,37H30V38H29zM30,37H31V38H30zM31,37H32V38H31zM34,37H35V38H34zM35,37H36V38H35zM36,37H37V38H36zM37,37H38V38H37zM39,37H40V38H39zM40,37H41V38H40zM41,37H42V38H41zM42,37H43V38H42zM44,37H45V38H44zM46,37H47V38H46zM48,37H49V38H48zM4,38H5V39H4zM5,38H6V39H5zM7,38H8V39H7zM10,38H11V39H10zM11,38H12V39H11zM12,38H13V39H12zM13,38H14V39H13zM15,38H16V39H15zM18,38H19V39H18zM19,38H20V39H19zM22,38H23V39H22zM23,38H24V39H23zM24,38H25V39H24zM28,38H29V39H28zM30,38H31V39H30zM33,38H34V39H33zM36,38H37V39H36zM39,38H40V39H39zM40,38H41V39H40zM43,38H44V39H43zM45,38H46V39H45zM46,38H47V39H46zM48,38H49V39H48zM12,39H13V40H12zM13,39H14V40H13zM14,39H15V40H14zM15,39H16V40H15zM17,39H18V40H17zM21,39H22V40H21zM22,39H23V40H22zM23,39H24V40H23zM26,39H27V40H26zM27,39H28V40H27zM28,39H29V40H28zM31,39H32V40H31zM32,39H33V40H32zM34,39H35V40H34zM37,39H38V40H37zM38,39H39V40H38zM39,39H40V40H39zM40,39H41V40H40zM41,39H42V40H41zM42,39H43V40H42zM43,39H44V40H43zM44,39H45V40H44zM45,39H46V40H45zM47,39H48V40H47zM48,39H49V40H48zM4,40H5V41H4zM5,40H6V41H5zM6,40H7V41H6zM7,40H8V41H7zM8,40H9V41H8zM9,40H10V41H9zM10,40H11V41H10zM12,40H13V41H12zM13,40H14V41H13zM14,40H15V41H14zM15,40H16V41H15zM16,40H17V41H16zM17,40H18V41H17zM20,40H21V41H20zM21,40H22V41H21zM23,40H24V41H23zM26,40H27V41H26zM28,40H29V41H28zM31,40H32V41H31zM34,40H35V41H34zM36,40H37V41H36zM38,40H39V41H38zM40,40H41V41H40zM42,40H43V41H42zM43,40H44V41H43zM45,40H46V41H45zM47,40H48V41H47zM48,40H49V41H48zM4,41H5V42H4zM10,41H11V42H10zM14,41H15V42H14zM16,41H17V42H16zM18,41H19V42H18zM20,41H21V42H20zM21,41H22V42H21zM22,41H23V42H22zM23,41H24V42H23zM24,41H25V42H24zM26,41H27V42H26zM27,41H28V42H27zM28,41H29V42H28zM29,41H30V42H29zM30,41H31V42H30zM33,41H34V42H33zM34,41H35V42H34zM36,41H37V42H36zM40,41H41V42H40zM43,41H44V42H43zM44,41H45V42H44zM45,41H46V42H45zM46,41H47V42H46zM47,41H48V42H47zM48,41H49V42H48zM4,42H5V43H4zM6,42H7V43H6zM7,42H8V43H7zM8,42H9V43H8zM10,42H11V43H10zM12,42H13V43H12zM14,42H15V43H14zM15,42H16V43H15zM16,42H17V43H16zM18,42H19V43H18zM20,42H21V43H20zM22,42H23V43H22zM24,42H25V43H24zM27,42H28V43H27zM28,42H29V43H28zM30,42H31V43H30zM31,42H32V43H31zM32,42H33V43H32zM34,42H35V43H34zM35,42H36V43H35zM36,42H37V43H36zM37,42H38V43H37zM38,42H39V43H38zM39,42H40V43H39zM40,42H41V43H40zM41,42H42V43H41zM42,42H43V43H42zM43,42H44V43H43zM44,42H45V43H44zM46,42H47V43H46zM47,42H48V43H47zM48,42H49V43H48zM4,43H5V44H4zM6,43H7V44H6zM7,43H8V44H7zM8,43H9V44H8zM10,43H11V44H10zM12,43H13V44H12zM15,43H16V44H15zM16,43H17V44H16zM17,43H18V44H17zM19,43H20V44H19zM21,43H22V44H21zM23,43H24V44H23zM24,43H25V44H24zM26,43H27V44H26zM27,43H28V44H27zM28,43H29V44H28zM29,43H30V44H29zM31,43H32V44H31zM33,43H34V44H33zM35,43H36V44H35zM36,43H37V44H36zM40,43H41V44H40zM42,43H43V44H42zM43,43H44V44H43zM45,43H46V44H45zM46,43H47V44H46zM48,43H49V44H48zM4,44H5V45H4zM6,44H7V45H6zM7,44H8V45H7zM8,44H9V45H8zM10,44H11V45H10zM12,44H13V45H12zM14,44H15V45H14zM16,44H17V45H16zM18,44H19V45H18zM19,44H20V45H19zM20,44H21V45H20zM21,44H22V45H21zM22,44H23V45H22zM23,44H24V45H23zM24,44H25V45H24zM25,44H26V45H25zM27,44H28V45H27zM28,44H29V45H28zM32,44H33V45H32zM35,44H36V45H35zM38,44H39V45H38zM39,44H40V45H39zM40,44H41V45H40zM42,44H43V45H42zM44,44H45V45H44zM45,44H46V45H45zM46,44H47V45H46zM48,44H49V45H48zM4,45H5V46H4zM10,45H11V46H10zM14,45H15V46H14zM15,45H16V46H15zM18,45H19V46H18zM20,45H21V46H20zM21,45H22V46H21zM22,45H23V46H22zM24,45H25V46H24zM28,45H29V46H28zM29,45H30V46H29zM30,45H31V46H30zM32,45H33V46H32zM33,45H34V46H33zM34,45H35V46H34zM35,45H36V46H35zM36,45H37V46H36zM38,45H39V46H38zM41,45H42V46H41zM42,45H43V46H42zM43,45H44V46H43zM44,45H45V46H44zM45,45H46V46H45zM46,45H47V46H46zM47,45H48V46H47zM48,45H49V46H48zM4,46H5V47H4zM5,46H6V47H5zM6,46H7V47H6zM7,46H8V47H7zM8,46H9V47H8zM9,46H10V47H9zM10,46H11V47H10zM12,46H13V47H12zM15,46H16V47H15zM17,46H18V47H17zM19,46H20V47H19zM22,46H23V47H22zM23,46H24V47H23zM25,46H26V47H25zM26,46H27V47H26zM27,46H28V47H27zM28,46H29V47H28zM31,46H32V47H31zM34,46H35V47H34zM36,46H37V47H36zM38,46H39V47H38zM40,46H41V47H40zM42,46H43V47H42zM44,46H45V47H44zM45,46H46V47H45zM47,46H48V47H47zM48,46H49V47H48zM12,47H13V48H12zM13,47H14V48H13zM15,47H16V48H15zM18,47H19V48H18zM19,47H20V48H19zM22,47H23V48H22zM24,47H25V48H24zM26,47H27V48H26zM27,47H28V48H27zM29,47H30V48H29zM30,47H31V48H30zM31,47H32V48H31zM33,47H34V48H33zM34,47H35V48H34zM37,47H38V48H37zM38,47H39V48H38zM39,47H40V48H39zM41,47H42V48H41zM42,47H43V48H42zM44,47H45V48H44zM45,47H46V48H45zM47,47H48V48H47zM48,47H49V48H48zM4,48H5V49H4zM5,48H6V49H5zM6,48H7V49H6zM7,48H8V49H7zM8,48H9V49H8zM10,48H11V49H10zM12,48H13V49H12zM15,48H16V49H15zM17,48H18V49H17zM18,48H19V49H18zM23,48H24V49H23zM24,48H25V49H24zM26,48H27V49H26zM30,48H31V49H30zM38,48H39V49H38zM40,48H41V49H40zM41,48H42V49H41zM42,48H43V49H42zM45,48H46V49H45zM47,48H48V49H47z" fill="#241c1b" fill-rule="nonzero"/>
</svg>
