<svg xmlns="http://www.w3.org/2000/svg" viewBox="0 0 800 800"><defs><linearGradient id="b" x1="0" y1="0" x2="1" y2="1"><stop stop-color="#f6ead9"/><stop offset=".5" stop-color="#b97a49"/><stop offset="1" stop-color="#47261a"/></linearGradient><linearGradient id="cake" x1="0" y1="0" x2="0" y2="1"><stop stop-color="#b7652d"/><stop offset="1" stop-color="#6e351e"/></linearGradient><linearGradient id="cream" x1="0" y1="0" x2="0" y2="1"><stop stop-color="#fffef8"/><stop offset="1" stop-color="#e8dccb"/></linearGradient><filter id="s"><feDropShadow dx="0" dy="28" stdDeviation="24" flood-opacity=".42"/></filter></defs><rect width="800" height="800" fill="url(#b)"/><circle cx="125" cy="110" r="170" fill="#fff9ed" opacity=".4"/><ellipse cx="405" cy="650" rx="305" ry="76" fill="#e8d9ca" stroke="#fff5ea" stroke-width="12"/><g filter="url(#s)"><path d="M210 600 335 300h270l55 300Z" fill="url(#cake)" stroke="#8c4829" stroke-width="8"/><path d="M228 520h395l13 54H206Z" fill="url(#cream)"/><path d="M250 405h355l12 54H228Z" fill="url(#cream)"/><path d="M329 300h282l15 70H302Z" fill="url(#cream)"/><g fill="#8a5b2e"><circle cx="310" cy="486" r="10"/><circle cx="370" cy="558" r="9"/><circle cx="460" cy="492" r="11"/><circle cx="545" cy="556" r="10"/><circle cx="400" cy="365" r="9"/><circle cx="520" cy="350" r="10"/></g><path d="M338 292c35-58 74-80 115-66 32 10 54 35 68 72" fill="none" stroke="#fffdf5" stroke-width="30" stroke-linecap="round"/><path d="M460 244c25-35 54-45 87-31 25 11 42 31 53 61" fill="none" stroke="#fffdf5" stroke-width="24" stroke-linecap="round"/></g></svg>