<svg xmlns="http://www.w3.org/2000/svg" viewBox="0 0 800 800"><defs><linearGradient id="b" x1="0" y1="0" x2="1" y2="1"><stop stop-color="#eff8f4"/><stop offset=".46" stop-color="#b8d8c7"/><stop offset="1" stop-color="#49604d"/></linearGradient><linearGradient id="g1" x1="0" y1="0" x2="0" y2="1"><stop stop-color="#fff7c8"/><stop offset="1" stop-color="#e7a928"/></linearGradient><linearGradient id="g2" x1="0" y1="0" x2="0" y2="1"><stop stop-color="#ffb9c9"/><stop offset="1" stop-color="#b22857"/></linearGradient><linearGradient id="g3" x1="0" y1="0" x2="0" y2="1"><stop stop-color="#ffd6a2"/><stop offset="1" stop-color="#ee6a38"/></linearGradient><linearGradient id="g4" x1="0" y1="0" x2="0" y2="1"><stop stop-color="#f7f5b0"/><stop offset="1" stop-color="#a8c63b"/></linearGradient><filter id="s"><feDropShadow dx="0" dy="24" stdDeviation="20" flood-opacity=".36"/></filter></defs><rect width="800" height="800" fill="url(#b)"/><circle cx="640" cy="120" r="170" fill="#fff" opacity=".26"/><path d="M0 590c145-52 280-67 405-44 138 25 269 17 395-25v279H0Z" fill="#9b6b3d"/><g filter="url(#s)"><g transform="translate(90 205)"><path d="M0 35h130l-13 334c-1 25-18 40-42 40H55c-24 0-41-15-42-40Z" fill="url(#g1)" stroke="#fff" stroke-opacity=".78" stroke-width="7"/><ellipse cx="65" cy="35" rx="65" ry="18" fill="#fff" fill-opacity=".74"/><circle cx="72" cy="130" r="18" fill="#ffd960"/><circle cx="48" cy="235" r="8" fill="#fff" opacity=".6"/></g><g transform="translate(250 180)"><path d="M0 35h130l-13 359c-1 25-18 40-42 40H55c-24 0-41-15-42-40Z" fill="url(#g2)" stroke="#fff" stroke-opacity=".78" stroke-width="7"/><ellipse cx="65" cy="35" rx="65" ry="18" fill="#fff" fill-opacity=".74"/><circle cx="43" cy="132" r="16" fill="#8f153d"/><circle cx="88" cy="205" r="14" fill="#6d2146"/><circle cx="58" cy="285" r="8" fill="#fff" opacity=".6"/></g><g transform="translate(410 205)"><path d="M0 35h130l-13 334c-1 25-18 40-42 40H55c-24 0-41-15-42-40Z" fill="url(#g3)" stroke="#fff" stroke-opacity=".78" stroke-width="7"/><ellipse cx="65" cy="35" rx="65" ry="18" fill="#fff" fill-opacity=".74"/><circle cx="83" cy="150" r="17" fill="#d83d43"/><circle cx="46" cy="232" r="11" fill="#fff" opacity=".58"/></g><g transform="translate(570 180)"><path d="M0 35h130l-13 359c-1 25-18 40-42 40H55c-24 0-41-15-42-40Z" fill="url(#g4)" stroke="#fff" stroke-opacity=".78" stroke-width="7"/><ellipse cx="65" cy="35" rx="65" ry="18" fill="#fff" fill-opacity=".74"/><circle cx="50" cy="145" r="18" fill="#d6e65e"/><circle cx="90" cy="230" r="10" fill="#fff" opacity=".58"/></g></g><g fill="#fff" opacity=".55"><rect x="113" y="286" width="22" height="55" rx="7" transform="rotate(-10 124 313)"/><rect x="301" y="250" width="23" height="60" rx="7" transform="rotate(8 312 280)"/><rect x="460" y="296" width="22" height="58" rx="7" transform="rotate(-8 471 325)"/><rect x="620" y="245" width="22" height="60" rx="7" transform="rotate(10 631 275)"/></g></svg>