<svg xmlns="http://www.w3.org/2000/svg" viewBox="0 0 800 800"><defs><linearGradient id="b" x1="0" y1="0" x2="1" y2="1"><stop stop-color="#f7dfba"/><stop offset=".48" stop-color="#8a4a23"/><stop offset="1" stop-color="#25100a"/></linearGradient><linearGradient id="c" x1="0" y1="0" x2="0" y2="1"><stop stop-color="#fff"/><stop offset="1" stop-color="#e5e1dc"/></linearGradient><radialGradient id="f"><stop stop-color="#fffdf7"/><stop offset=".7" stop-color="#f5e5c9"/><stop offset="1" stop-color="#dba35c"/></radialGradient><filter id="s"><feDropShadow dx="0" dy="28" stdDeviation="24" flood-opacity=".42"/></filter></defs><rect width="800" height="800" fill="url(#b)"/><g opacity=".22"><circle cx="128" cy="126" r="95" fill="#fff2c9"/><circle cx="668" cy="168" r="74" fill="#fff"/><circle cx="710" cy="420" r="90" fill="#ffddb2"/></g><ellipse cx="400" cy="626" rx="306" ry="88" fill="#ece5dc" stroke="#fff" stroke-width="12"/><g filter="url(#s)"><path d="M184 314h394c34 0 61 27 61 61v176c0 51-42 93-93 93H280c-51 0-93-42-93-93V314Z" fill="url(#c)"/><path d="M579 370h46c72 0 72 118 0 118h-38" fill="none" stroke="#f6f2ed" stroke-width="34" stroke-linecap="round"/><ellipse cx="381" cy="320" rx="198" ry="61" fill="#c9762f" stroke="#fff" stroke-width="10"/><ellipse cx="381" cy="318" rx="176" ry="48" fill="url(#f)"/><path d="M286 332c35-57 81-62 111-5 31-54 76-52 109 4-31 4-57 18-77 41-13 15-23 32-31 51-11-26-28-47-50-63-18-13-39-22-62-28Z" fill="none" stroke="#fff" stroke-width="18" stroke-linecap="round" stroke-linejoin="round"/><text x="382" y="525" text-anchor="middle" font-family="Arial,sans-serif" font-weight="700" font-size="74" fill="#1f1715">ROBY'S</text><text x="382" y="570" text-anchor="middle" font-family="Arial,sans-serif" font-size="29" letter-spacing="5" fill="#403330">COFFEE HOUSE</text></g></svg>