<svg xmlns="http://www.w3.org/2000/svg" viewBox="0 0 800 800"><defs><linearGradient id="b" x1="0" y1="0" x2="1" y2="1"><stop stop-color="#fffbea"/><stop offset=".52" stop-color="#efd989"/><stop offset="1" stop-color="#8d6429"/></linearGradient><linearGradient id="c" x1="0" y1="0" x2="0" y2="1"><stop stop-color="#fffef4"/><stop offset=".7" stop-color="#f2e4b6"/><stop offset="1" stop-color="#d3ba77"/></linearGradient><linearGradient id="l" x1="0" y1="0" x2="1" y2="1"><stop stop-color="#fff77b"/><stop offset=".5" stop-color="#f1cf22"/><stop offset="1" stop-color="#d89a0d"/></linearGradient><filter id="s"><feDropShadow dx="0" dy="28" stdDeviation="24" flood-opacity=".35"/></filter></defs><rect width="800" height="800" fill="url(#b)"/><circle cx="150" cy="120" r="180" fill="#fff" opacity=".42"/><ellipse cx="412" cy="638" rx="300" ry="78" fill="#eee6d8" stroke="#fffdf8" stroke-width="12"/><g filter="url(#s)"><path d="M208 566 414 250 650 570Z" fill="url(#c)" stroke="#e7d291" stroke-width="8"/><path d="M414 250c89 50 168 158 236 320H208c58-144 128-251 206-320Z" fill="url(#l)"/><path d="M232 558h397l-24 44H260Z" fill="#b89252"/><path d="M247 513c72-18 135-18 192 0 62 18 120 18 179 0" fill="none" stroke="#ffd83b" stroke-width="17" stroke-linecap="round" opacity=".75"/><path d="M365 285c18-35 48-52 86-51 40 2 70 21 91 57-30-10-59-11-87-4-33 8-62 7-90-2Z" fill="#fff6a2" opacity=".7"/><circle cx="548" cy="298" r="38" fill="#f8df34" stroke="#fff38b" stroke-width="8"/><path d="M548 264v68M514 298h68M523 273l50 50M573 273l-50 50" stroke="#fff9bf" stroke-width="6" opacity=".8"/></g></svg>