<svg xmlns="http://www.w3.org/2000/svg" viewBox="0 0 800 800"><defs><linearGradient id="b" x1="0" y1="0" x2="1" y2="1"><stop stop-color="#fff3df"/><stop offset=".5" stop-color="#d49b5c"/><stop offset="1" stop-color="#512414"/></linearGradient><linearGradient id="c" x1="0" y1="0" x2="0" y2="1"><stop stop-color="#fff8df"/><stop offset="1" stop-color="#d7ad68"/></linearGradient><linearGradient id="t" x1="0" y1="0" x2="1" y2="1"><stop stop-color="#d89241"/><stop offset="1" stop-color="#6c2d15"/></linearGradient><filter id="s"><feDropShadow dx="0" dy="26" stdDeviation="22" flood-opacity=".38"/></filter></defs><rect width="800" height="800" fill="url(#b)"/><circle cx="150" cy="130" r="170" fill="#fff9ec" opacity=".48"/><ellipse cx="407" cy="640" rx="300" ry="78" fill="#ead8c2" stroke="#fff5e8" stroke-width="12"/><g filter="url(#s)"><path d="M205 565 412 250 655 570Z" fill="url(#c)" stroke="#edce95" stroke-width="8"/><path d="M412 250c87 50 168 158 243 320H205c58-144 128-251 207-320Z" fill="url(#t)"/><path d="M230 556h404l-26 47H260Z" fill="#8c5229"/><path d="M247 528c69-19 133-17 193 1 62 18 121 18 178 0" fill="none" stroke="#733115" stroke-width="17" stroke-linecap="round" opacity=".7"/><g fill="#e8a85c"><circle cx="322" cy="356" r="8"/><circle cx="362" cy="317" r="9"/><circle cx="431" cy="309" r="8"/><circle cx="493" cy="349" r="10"/><circle cx="538" cy="397" r="8"/><circle cx="288" cy="417" r="8"/></g></g></svg>