<svg xmlns="http://www.w3.org/2000/svg" viewBox="0 0 800 800"><defs><linearGradient id="b" x1="0" y1="0" x2="1" y2="1"><stop stop-color="#fff0d8"/><stop offset=".48" stop-color="#d2934d"/><stop offset="1" stop-color="#4b2114"/></linearGradient><linearGradient id="d" x1="0" y1="0" x2="0" y2="1"><stop stop-color="#f7bd61"/><stop offset=".48" stop-color="#c96b1f"/><stop offset="1" stop-color="#753313"/></linearGradient><linearGradient id="ch" x1="0" y1="0" x2="1" y2="1"><stop stop-color="#5b2b1a"/><stop offset="1" stop-color="#1d0d08"/></linearGradient><filter id="s"><feDropShadow dx="0" dy="28" stdDeviation="24" flood-opacity=".42"/></filter></defs><rect width="800" height="800" fill="url(#b)"/><circle cx="650" cy="150" r="150" fill="#fff4c9" opacity=".35"/><ellipse cx="410" cy="625" rx="315" ry="82" fill="#f0e1cc" stroke="#fff7ea" stroke-width="12"/><g filter="url(#s)"><path d="M126 489c48-124 166-205 286-205s238 81 286 205c-74 84-174 126-286 126S200 573 126 489Z" fill="url(#d)" stroke="#f3c77f" stroke-width="8"/><path d="M154 493c73 28 157 42 258 42s185-14 258-42" fill="none" stroke="#843b16" stroke-width="20" stroke-linecap="round" opacity=".7"/><path d="M204 461c46-55 83-99 124-135M278 485c42-75 71-132 102-186M372 500c22-89 34-149 40-214M466 499c-13-86-22-148-36-211M554 478c-35-73-66-126-101-171M624 448c-42-52-78-89-115-121" fill="none" stroke="#ffe2a5" stroke-width="18" stroke-linecap="round" opacity=".72"/><path d="M160 499c91 18 173 21 252 11 90-11 167-14 252-4-66 54-149 81-252 81-100 0-184-29-252-88Z" fill="url(#ch)" opacity=".98"/><path d="M186 519c78 11 151 11 222 1 76-10 154-11 232-1" fill="none" stroke="#8b4a2f" stroke-width="14" stroke-linecap="round"/><path d="M314 277c31-36 63-56 98-56 36 0 69 19 101 57" fill="none" stroke="#f6cf87" stroke-width="18" stroke-linecap="round"/></g></svg>