<svg xmlns="http://www.w3.org/2000/svg" viewBox="0 0 800 800"><defs><linearGradient id="b" x1="0" y1="0" x2="1" y2="1"><stop stop-color="#fff0ef"/><stop offset=".48" stop-color="#d68d91"/><stop offset="1" stop-color="#4c2024"/></linearGradient><linearGradient id="c" x1="0" y1="0" x2="0" y2="1"><stop stop-color="#fffdf2"/><stop offset="1" stop-color="#eadab9"/></linearGradient><linearGradient id="r" x1="0" y1="0" x2="1" y2="1"><stop stop-color="#ff5c74"/><stop offset=".52" stop-color="#c42e4d"/><stop offset="1" stop-color="#6f1730"/></linearGradient><filter id="s"><feDropShadow dx="0" dy="28" stdDeviation="24" flood-opacity=".4"/></filter></defs><rect width="800" height="800" fill="url(#b)"/><circle cx="130" cy="120" r="170" fill="#fff" opacity=".34"/><ellipse cx="410" cy="640" rx="302" ry="80" fill="#ead9d4" stroke="#fff7f2" stroke-width="12"/><g filter="url(#s)"><path d="M210 566 415 250 650 570Z" fill="url(#c)" stroke="#ead29b" stroke-width="8"/><path d="M415 250c86 50 166 159 235 320H210c57-143 126-250 205-320Z" fill="url(#r)"/><path d="M236 557h392l-25 46H263Z" fill="#a66b45"/><path d="M250 520c66-17 127-17 183 0 61 18 120 18 180 0" fill="none" stroke="#941d3d" stroke-width="18" stroke-linecap="round" opacity=".76"/><g fill="#ff92a3"><circle cx="312" cy="386" r="9"/><circle cx="358" cy="325" r="8"/><circle cx="448" cy="318" r="9"/><circle cx="520" cy="377" r="8"/><circle cx="553" cy="430" r="7"/></g></g></svg>