<svg xmlns="http://www.w3.org/2000/svg" viewBox="0 0 800 800"><defs><linearGradient id="b" x1="0" y1="0" x2="1" y2="1"><stop stop-color="#fff1d8"/><stop offset=".52" stop-color="#d39a63"/><stop offset="1" stop-color="#5b291a"/></linearGradient><linearGradient id="c" x1="0" y1="0" x2="0" y2="1"><stop stop-color="#fff8dd"/><stop offset=".65" stop-color="#f3d18e"/><stop offset="1" stop-color="#c98b44"/></linearGradient><linearGradient id="top" x1="0" y1="0" x2="1" y2="1"><stop stop-color="#9a4e23"/><stop offset=".55" stop-color="#5a2614"/><stop offset="1" stop-color="#2a1009"/></linearGradient><filter id="s"><feDropShadow dx="0" dy="28" stdDeviation="24" flood-opacity=".4"/></filter></defs><rect width="800" height="800" fill="url(#b)"/><circle cx="120" cy="120" r="180" fill="#fff9ec" opacity=".46"/><ellipse cx="410" cy="640" rx="302" ry="80" fill="#e8d3bb" stroke="#fff4e5" stroke-width="12"/><g filter="url(#s)"><path d="M210 566 415 250 650 570Z" fill="url(#c)" stroke="#efc981" stroke-width="8"/><path d="M415 250c86 50 166 159 235 320H210c57-143 126-250 205-320Z" fill="url(#top)"/><path d="M236 557h392l-25 46H263Z" fill="#9b5c2d"/><path d="M254 520c64-20 123-18 179 0 60 19 120 19 180 0" fill="none" stroke="#7d3519" stroke-width="18" stroke-linecap="round" opacity=".72"/><path d="M332 327c20-21 44-31 72-31 29 0 55 10 77 31" fill="none" stroke="#d78341" stroke-width="13" stroke-linecap="round"/><g fill="#b7652c"><circle cx="302" cy="390" r="7"/><circle cx="353" cy="322" r="8"/><circle cx="452" cy="318" r="9"/><circle cx="518" cy="373" r="8"/><circle cx="555" cy="428" r="7"/></g></g></svg>