<svg xmlns="http://www.w3.org/2000/svg" viewBox="0 0 800 800"><defs><linearGradient id="b" x1="0" y1="0" x2="1" y2="1"><stop stop-color="#efe6db"/><stop offset=".5" stop-color="#b88b66"/><stop offset="1" stop-color="#3c2418"/></linearGradient><radialGradient id="c" cx="35%" cy="28%" r="70%"><stop stop-color="#f2c27e"/><stop offset=".55" stop-color="#c57a32"/><stop offset="1" stop-color="#6a3418"/></radialGradient><filter id="s"><feDropShadow dx="0" dy="28" stdDeviation="24" flood-opacity=".42"/></filter></defs><rect width="800" height="800" fill="url(#b)"/><circle cx="640" cy="120" r="150" fill="#fff4da" opacity=".28"/><ellipse cx="405" cy="638" rx="300" ry="80" fill="#efe5db" stroke="#fff" stroke-width="12"/><g filter="url(#s)"><circle cx="404" cy="430" r="226" fill="url(#c)" stroke="#e4b16e" stroke-width="10"/><g fill="#4a2114"><circle cx="300" cy="345" r="24"/><circle cx="392" cy="300" r="20"/><circle cx="490" cy="342" r="25"/><circle cx="530" cy="430" r="20"/><circle cx="448" cy="500" r="24"/><circle cx="335" cy="505" r="21"/><circle cx="278" cy="430" r="17"/></g><g fill="#f6e0bd"><circle cx="344" cy="375" r="16"/><circle cx="448" cy="385" r="14"/><circle cx="396" cy="452" r="15"/><circle cx="500" cy="470" r="12"/><circle cx="310" cy="470" r="12"/></g><path d="M250 410c64-37 130-54 198-50 55 3 104 17 148 43" fill="none" stroke="#f0b969" stroke-width="10" opacity=".5"/></g></svg>